<svg version="1.1" xmlns="http://www.w3.org/2000/svg" xmlns:xlink="http://www.w3.org/1999/xlink" width="736.72802734375" height="571"><defs/><g><text fill="#eeeeee" stroke="none" font-family="Arial" font-size="24px" font-style="normal" font-weight="normal" text-decoration="none" x="0" y="0">UNREGISTERED</text><text fill="#eeeeee" stroke="none" font-family="Arial" font-size="24px" font-style="normal" font-weight="normal" text-decoration="none" x="0" y="30">UNREGISTERED</text><text fill="#eeeeee" stroke="none" font-family="Arial" font-size="24px" font-style="normal" font-weight="normal" text-decoration="none" x="0" y="60">UNREGISTERED</text><text fill="#eeeeee" stroke="none" font-family="Arial" font-size="24px" font-style="normal" font-weight="normal" text-decoration="none" x="0" y="90">UNREGISTERED</text><text fill="#eeeeee" stroke="none" font-family="Arial" font-size="24px" font-style="normal" font-weight="normal" text-decoration="none" x="0" y="120">UNREGISTERED</text><text fill="#eeeeee" stroke="none" font-family="Arial" font-size="24px" font-style="normal" font-weight="normal" text-decoration="none" x="0" y="150">UNREGISTERED</text><text fill="#eeeeee" stroke="none" font-family="Arial" font-size="24px" font-style="normal" font-weight="normal" text-decoration="none" x="0" y="180">UNREGISTERED</text><text fill="#eeeeee" stroke="none" font-family="Arial" font-size="24px" font-style="normal" font-weight="normal" text-decoration="none" x="0" y="210">UNREGISTERED</text><text fill="#eeeeee" stroke="none" font-family="Arial" font-size="24px" font-style="normal" font-weight="normal" text-decoration="none" x="0" y="240">UNREGISTERED</text><text fill="#eeeeee" stroke="none" font-family="Arial" font-size="24px" font-style="normal" font-weight="normal" text-decoration="none" x="0" y="270">UNREGISTERED</text><text fill="#eeeeee" stroke="none" font-family="Arial" font-size="24px" font-style="normal" font-weight="normal" text-decoration="none" x="0" y="300">UNREGISTERED</text><text fill="#eeeeee" stroke="none" font-family="Arial" font-size="24px" font-style="normal" font-weight="normal" text-decoration="none" x="0" y="330">UNREGISTERED</text><text fill="#eeeeee" stroke="none" font-family="Arial" font-size="24px" font-style="normal" font-weight="normal" text-decoration="none" x="0" y="360">UNREGISTERED</text><text fill="#eeeeee" stroke="none" font-family="Arial" font-size="24px" font-style="normal" font-weight="normal" text-decoration="none" x="0" y="390">UNREGISTERED</text><text fill="#eeeeee" stroke="none" font-family="Arial" font-size="24px" font-style="normal" font-weight="normal" text-decoration="none" x="0" y="420">UNREGISTERED</text><text fill="#eeeeee" stroke="none" font-family="Arial" font-size="24px" font-style="normal" font-weight="normal" text-decoration="none" x="0" y="450">UNREGISTERED</text><text fill="#eeeeee" stroke="none" font-family="Arial" font-size="24px" font-style="normal" font-weight="normal" text-decoration="none" x="0" y="480">UNREGISTERED</text><text fill="#eeeeee" stroke="none" font-family="Arial" font-size="24px" font-style="normal" font-weight="normal" text-decoration="none" x="0" y="510">UNREGISTERED</text><text fill="#eeeeee" stroke="none" font-family="Arial" font-size="24px" font-style="normal" font-weight="normal" text-decoration="none" x="0" y="540">UNREGISTERED</text><text fill="#eeeeee" stroke="none" font-family="Arial" font-size="24px" font-style="normal" font-weight="normal" text-decoration="none" x="0" y="570">UNREGISTERED</text><text fill="#eeeeee" stroke="none" font-family="Arial" font-size="24px" font-style="normal" font-weight="normal" text-decoration="none" x="200" y="0">UNREGISTERED</text><text fill="#eeeeee" stroke="none" font-family="Arial" font-size="24px" font-style="normal" font-weight="normal" text-decoration="none" x="200" y="30">UNREGISTERED</text><text fill="#eeeeee" stroke="none" font-family="Arial" font-size="24px" font-style="normal" font-weight="normal" text-decoration="none" x="200" y="60">UNREGISTERED</text><text fill="#eeeeee" stroke="none" font-family="Arial" font-size="24px" font-style="normal" font-weight="normal" text-decoration="none" x="200" y="90">UNREGISTERED</text><text fill="#eeeeee" stroke="none" font-family="Arial" font-size="24px" font-style="normal" font-weight="normal" text-decoration="none" x="200" y="120">UNREGISTERED</text><text fill="#eeeeee" stroke="none" font-family="Arial" font-size="24px" font-style="normal" font-weight="normal" text-decoration="none" x="200" y="150">UNREGISTERED</text><text fill="#eeeeee" stroke="none" font-family="Arial" font-size="24px" font-style="normal" font-weight="normal" text-decoration="none" x="200" y="180">UNREGISTERED</text><text fill="#eeeeee" stroke="none" font-family="Arial" font-size="24px" font-style="normal" font-weight="normal" text-decoration="none" x="200" y="210">UNREGISTERED</text><text fill="#eeeeee" stroke="none" font-family="Arial" font-size="24px" font-style="normal" font-weight="normal" text-decoration="none" x="200" y="240">UNREGISTERED</text><text fill="#eeeeee" stroke="none" font-family="Arial" font-size="24px" font-style="normal" font-weight="normal" text-decoration="none" x="200" y="270">UNREGISTERED</text><text fill="#eeeeee" stroke="none" font-family="Arial" font-size="24px" font-style="normal" font-weight="normal" text-decoration="none" x="200" y="300">UNREGISTERED</text><text fill="#eeeeee" stroke="none" font-family="Arial" font-size="24px" font-style="normal" font-weight="normal" text-decoration="none" x="200" y="330">UNREGISTERED</text><text fill="#eeeeee" stroke="none" font-family="Arial" font-size="24px" font-style="normal" font-weight="normal" text-decoration="none" x="200" y="360">UNREGISTERED</text><text fill="#eeeeee" stroke="none" font-family="Arial" font-size="24px" font-style="normal" font-weight="normal" text-decoration="none" x="200" y="390">UNREGISTERED</text><text fill="#eeeeee" stroke="none" font-family="Arial" font-size="24px" font-style="normal" font-weight="normal" text-decoration="none" x="200" y="420">UNREGISTERED</text><text fill="#eeeeee" stroke="none" font-family="Arial" font-size="24px" font-style="normal" font-weight="normal" text-decoration="none" x="200" y="450">UNREGISTERED</text><text fill="#eeeeee" stroke="none" font-family="Arial" font-size="24px" font-style="normal" font-weight="normal" text-decoration="none" x="200" y="480">UNREGISTERED</text><text fill="#eeeeee" stroke="none" font-family="Arial" font-size="24px" font-style="normal" font-weight="normal" text-decoration="none" x="200" y="510">UNREGISTERED</text><text fill="#eeeeee" stroke="none" font-family="Arial" font-size="24px" font-style="normal" font-weight="normal" text-decoration="none" x="200" y="540">UNREGISTERED</text><text fill="#eeeeee" stroke="none" font-family="Arial" font-size="24px" font-style="normal" font-weight="normal" text-decoration="none" x="200" y="570">UNREGISTERED</text><text fill="#eeeeee" stroke="none" font-family="Arial" font-size="24px" font-style="normal" font-weight="normal" text-decoration="none" x="400" y="0">UNREGISTERED</text><text fill="#eeeeee" stroke="none" font-family="Arial" font-size="24px" font-style="normal" font-weight="normal" text-decoration="none" x="400" y="30">UNREGISTERED</text><text fill="#eeeeee" stroke="none" font-family="Arial" font-size="24px" font-style="normal" font-weight="normal" text-decoration="none" x="400" y="60">UNREGISTERED</text><text fill="#eeeeee" stroke="none" font-family="Arial" font-size="24px" font-style="normal" font-weight="normal" text-decoration="none" x="400" y="90">UNREGISTERED</text><text fill="#eeeeee" stroke="none" font-family="Arial" font-size="24px" font-style="normal" font-weight="normal" text-decoration="none" x="400" y="120">UNREGISTERED</text><text fill="#eeeeee" stroke="none" font-family="Arial" font-size="24px" font-style="normal" font-weight="normal" text-decoration="none" x="400" y="150">UNREGISTERED</text><text fill="#eeeeee" stroke="none" font-family="Arial" font-size="24px" font-style="normal" font-weight="normal" text-decoration="none" x="400" y="180">UNREGISTERED</text><text fill="#eeeeee" stroke="none" font-family="Arial" font-size="24px" font-style="normal" font-weight="normal" text-decoration="none" x="400" y="210">UNREGISTERED</text><text fill="#eeeeee" stroke="none" font-family="Arial" font-size="24px" font-style="normal" font-weight="normal" text-decoration="none" x="400" y="240">UNREGISTERED</text><text fill="#eeeeee" stroke="none" font-family="Arial" font-size="24px" font-style="normal" font-weight="normal" text-decoration="none" x="400" y="270">UNREGISTERED</text><text fill="#eeeeee" stroke="none" font-family="Arial" font-size="24px" font-style="normal" font-weight="normal" text-decoration="none" x="400" y="300">UNREGISTERED</text><text fill="#eeeeee" stroke="none" font-family="Arial" font-size="24px" font-style="normal" font-weight="normal" text-decoration="none" x="400" y="330">UNREGISTERED</text><text fill="#eeeeee" stroke="none" font-family="Arial" font-size="24px" font-style="normal" font-weight="normal" text-decoration="none" x="400" y="360">UNREGISTERED</text><text fill="#eeeeee" stroke="none" font-family="Arial" font-size="24px" font-style="normal" font-weight="normal" text-decoration="none" x="400" y="390">UNREGISTERED</text><text fill="#eeeeee" stroke="none" font-family="Arial" font-size="24px" font-style="normal" font-weight="normal" text-decoration="none" x="400" y="420">UNREGISTERED</text><text fill="#eeeeee" stroke="none" font-family="Arial" font-size="24px" font-style="normal" font-weight="normal" text-decoration="none" x="400" y="450">UNREGISTERED</text><text fill="#eeeeee" stroke="none" font-family="Arial" font-size="24px" font-style="normal" font-weight="normal" text-decoration="none" x="400" y="480">UNREGISTERED</text><text fill="#eeeeee" stroke="none" font-family="Arial" font-size="24px" font-style="normal" font-weight="normal" text-decoration="none" x="400" y="510">UNREGISTERED</text><text fill="#eeeeee" stroke="none" font-family="Arial" font-size="24px" font-style="normal" font-weight="normal" text-decoration="none" x="400" y="540">UNREGISTERED</text><text fill="#eeeeee" stroke="none" font-family="Arial" font-size="24px" font-style="normal" font-weight="normal" text-decoration="none" x="400" y="570">UNREGISTERED</text><text fill="#eeeeee" stroke="none" font-family="Arial" font-size="24px" font-style="normal" font-weight="normal" text-decoration="none" x="600" y="0">UNREGISTERED</text><text fill="#eeeeee" stroke="none" font-family="Arial" font-size="24px" font-style="normal" font-weight="normal" text-decoration="none" x="600" y="30">UNREGISTERED</text><text fill="#eeeeee" stroke="none" font-family="Arial" font-size="24px" font-style="normal" font-weight="normal" text-decoration="none" x="600" y="60">UNREGISTERED</text><text fill="#eeeeee" stroke="none" font-family="Arial" font-size="24px" font-style="normal" font-weight="normal" text-decoration="none" x="600" y="90">UNREGISTERED</text><text fill="#eeeeee" stroke="none" font-family="Arial" font-size="24px" font-style="normal" font-weight="normal" text-decoration="none" x="600" y="120">UNREGISTERED</text><text fill="#eeeeee" stroke="none" font-family="Arial" font-size="24px" font-style="normal" font-weight="normal" text-decoration="none" x="600" y="150">UNREGISTERED</text><text fill="#eeeeee" stroke="none" font-family="Arial" font-size="24px" font-style="normal" font-weight="normal" text-decoration="none" x="600" y="180">UNREGISTERED</text><text fill="#eeeeee" stroke="none" font-family="Arial" font-size="24px" font-style="normal" font-weight="normal" text-decoration="none" x="600" y="210">UNREGISTERED</text><text fill="#eeeeee" stroke="none" font-family="Arial" font-size="24px" font-style="normal" font-weight="normal" text-decoration="none" x="600" y="240">UNREGISTERED</text><text fill="#eeeeee" stroke="none" font-family="Arial" font-size="24px" font-style="normal" font-weight="normal" text-decoration="none" x="600" y="270">UNREGISTERED</text><text fill="#eeeeee" stroke="none" font-family="Arial" font-size="24px" font-style="normal" font-weight="normal" text-decoration="none" x="600" y="300">UNREGISTERED</text><text fill="#eeeeee" stroke="none" font-family="Arial" font-size="24px" font-style="normal" font-weight="normal" text-decoration="none" x="600" y="330">UNREGISTERED</text><text fill="#eeeeee" stroke="none" font-family="Arial" font-size="24px" font-style="normal" font-weight="normal" text-decoration="none" x="600" y="360">UNREGISTERED</text><text fill="#eeeeee" stroke="none" font-family="Arial" font-size="24px" font-style="normal" font-weight="normal" text-decoration="none" x="600" y="390">UNREGISTERED</text><text fill="#eeeeee" stroke="none" font-family="Arial" font-size="24px" font-style="normal" font-weight="normal" text-decoration="none" x="600" y="420">UNREGISTERED</text><text fill="#eeeeee" stroke="none" font-family="Arial" font-size="24px" font-style="normal" font-weight="normal" text-decoration="none" x="600" y="450">UNREGISTERED</text><text fill="#eeeeee" stroke="none" font-family="Arial" font-size="24px" font-style="normal" font-weight="normal" text-decoration="none" x="600" y="480">UNREGISTERED</text><text fill="#eeeeee" stroke="none" font-family="Arial" font-size="24px" font-style="normal" font-weight="normal" text-decoration="none" x="600" y="510">UNREGISTERED</text><text fill="#eeeeee" stroke="none" font-family="Arial" font-size="24px" font-style="normal" font-weight="normal" text-decoration="none" x="600" y="540">UNREGISTERED</text><text fill="#eeeeee" stroke="none" font-family="Arial" font-size="24px" font-style="normal" font-weight="normal" text-decoration="none" x="600" y="570">UNREGISTERED</text><g transform="translate(10,-38) scale(1,1)"><rect fill="#ffffff" stroke="none" x="0" y="48" width="312" height="21"/></g><g transform="translate(10,-38) scale(1,1)"><path fill="none" stroke="#000000" d="M 0 48 L 312 48 L 312 69 L 0 69 L 0 48 Z Z" stroke-miterlimit="10" stroke-width="2"/></g><g transform="translate(10,-38) scale(1,1)"><path fill="none" stroke="#000000" d="M 0 599 L 0 48 L 312 48 L 312 599" stroke-miterlimit="10" stroke-width="2"/></g><g transform="translate(10,-38) scale(1,1)"><g><path fill="none" stroke="none"/><text fill="#000000" stroke="none" font-family="Arial" font-size="13px" font-style="normal" font-weight="normal" text-decoration="none" x="110.474609375" y="62">Admin ou modo</text></g></g><g transform="translate(10,-38) scale(1,1)"><rect fill="#ffffff" stroke="none" x="464" y="48" width="248" height="21"/></g><g transform="translate(10,-38) scale(1,1)"><path fill="none" stroke="#000000" d="M 464 48 L 712 48 L 712 69 L 464 69 L 464 48 Z Z" stroke-miterlimit="10" stroke-width="2"/></g><g transform="translate(10,-38) scale(1,1)"><path fill="none" stroke="#000000" d="M 464 599 L 464 48 L 712 48 L 712 599" stroke-miterlimit="10" stroke-width="2"/></g><g transform="translate(10,-38) scale(1,1)"><g><path fill="none" stroke="none"/><text fill="#000000" stroke="none" font-family="Arial" font-size="13px" font-style="normal" font-weight="normal" text-decoration="none" x="566.3291015625" y="62">System</text></g></g><g transform="translate(10,-38) scale(1,1)"><path fill="#C0C0C0" stroke="none" d="M 591 88.5 C 591 83.2532944 595.2532944 79 600.5 79 C 605.7467056 79 610 83.2532944 610 88.5 C 610 93.7467056 605.7467056 98 600.5 98 C 595.2532944 98 591 93.7467056 591 88.5 Z" opacity="0.2"/></g><g transform="translate(10,-38) scale(1,1)"><path fill="#000000" stroke="none" d="M 584 81.5 C 584 76.2532944 588.2532944 72 593.5 72 C 598.7467056 72 603 76.2532944 603 81.5 C 603 86.7467056 598.7467056 91 593.5 91 C 588.2532944 91 584 86.7467056 584 81.5 Z"/></g><g transform="translate(10,-38) scale(1,1)"><path fill="#C0C0C0" stroke="none" d="M 505 127 L 668.0654296875 127 Q 678.0654296875 127 678.0654296875 137 L 678.0654296875 157 Q 678.0654296875 167 668.0654296875 167 L 505 167 Q 495 167 495 157 L 495 137 Q 495 127 505 127 Z" opacity="0.2"/></g><g transform="translate(10,-38) scale(1,1)"><path fill="#ffffff" stroke="none" d="M 498 120 L 661.0654296875 120 Q 671.0654296875 120 671.0654296875 130 L 671.0654296875 150 Q 671.0654296875 160 661.0654296875 160 L 498 160 Q 488 160 488 150 L 488 130 Q 488 120 498 120 Z"/></g><g transform="translate(10,-38) scale(1,1)"><path fill="none" stroke="#000000" d="M 498 120 L 661.0654296875 120 Q 671.0654296875 120 671.0654296875 130 L 671.0654296875 150 Q 671.0654296875 160 661.0654296875 160 L 498 160 Q 488 160 488 150 L 488 130 Q 488 120 498 120 Z" stroke-miterlimit="10"/></g><g transform="translate(10,-38) scale(1,1)"><g><path fill="none" stroke="none"/><text fill="#000000" stroke="none" font-family="Arial" font-size="13px" font-style="normal" font-weight="bold" text-decoration="none" x="492.5" y="138">Notification contenu signalé</text></g></g><g transform="translate(10,-38) scale(1,1)"><path fill="none" stroke="#000000" d="M 620 249 L 651 287" stroke-miterlimit="10"/></g><g transform="translate(10,-38) scale(1,1)"><path fill="none" stroke="#000000" d="M 641.3140935364353 281.786247418694 L 651 287 L 647.8377096633451 276.4643500520044" stroke-miterlimit="10"/></g><g transform="translate(10,-38) scale(1,1)"><path fill="#C0C0C0" stroke="none" d="M 113 511 L 296.314453125 511 Q 306.314453125 511 306.314453125 521 L 306.314453125 541 Q 306.314453125 551 296.314453125 551 L 113 551 Q 103 551 103 541 L 103 521 Q 103 511 113 511 Z" opacity="0.2"/></g><g transform="translate(10,-38) scale(1,1)"><path fill="#ffffff" stroke="none" d="M 106 504 L 289.314453125 504 Q 299.314453125 504 299.314453125 514 L 299.314453125 534 Q 299.314453125 544 289.314453125 544 L 106 544 Q 96 544 96 534 L 96 514 Q 96 504 106 504 Z"/></g><g transform="translate(10,-38) scale(1,1)"><path fill="none" stroke="#000000" d="M 106 504 L 289.314453125 504 Q 299.314453125 504 299.314453125 514 L 299.314453125 534 Q 299.314453125 544 289.314453125 544 L 106 544 Q 96 544 96 534 L 96 514 Q 96 504 106 504 Z" stroke-miterlimit="10"/></g><g transform="translate(10,-38) scale(1,1)"><g><path fill="none" stroke="none"/><text fill="#000000" stroke="none" font-family="Arial" font-size="13px" font-style="normal" font-weight="bold" text-decoration="none" x="100.5" y="522">Suppression compte utilisateur</text></g></g><g transform="translate(10,-38) scale(1,1)"><path fill="#C0C0C0" stroke="none" d="M 89 271 L 309.130859375 271 Q 319.130859375 271 319.130859375 281 L 319.130859375 301 Q 319.130859375 311 309.130859375 311 L 89 311 Q 79 311 79 301 L 79 281 Q 79 271 89 271 Z" opacity="0.2"/></g><g transform="translate(10,-38) scale(1,1)"><path fill="#ffffff" stroke="none" d="M 82 264 L 302.130859375 264 Q 312.130859375 264 312.130859375 274 L 312.130859375 294 Q 312.130859375 304 302.130859375 304 L 82 304 Q 72 304 72 294 L 72 274 Q 72 264 82 264 Z"/></g><g transform="translate(10,-38) scale(1,1)"><path fill="none" stroke="#000000" d="M 82 264 L 302.130859375 264 Q 312.130859375 264 312.130859375 274 L 312.130859375 294 Q 312.130859375 304 302.130859375 304 L 82 304 Q 72 304 72 294 L 72 274 Q 72 264 82 264 Z" stroke-miterlimit="10"/></g><g transform="translate(10,-38) scale(1,1)"><g><path fill="none" stroke="none"/><text fill="#000000" stroke="none" font-family="Arial" font-size="13px" font-style="normal" font-weight="bold" text-decoration="none" x="76.5" y="282">Suppression contributions utilisateur</text></g></g><g transform="translate(10,-38) scale(1,1)"><path fill="#C0C0C0" stroke="none" d="M 513 215 L 707.1435546875 215 Q 717.1435546875 215 717.1435546875 225 L 717.1435546875 245 Q 717.1435546875 255 707.1435546875 255 L 513 255 Q 503 255 503 245 L 503 225 Q 503 215 513 215 Z" opacity="0.2"/></g><g transform="translate(10,-38) scale(1,1)"><path fill="#ffffff" stroke="none" d="M 506 208 L 700.1435546875 208 Q 710.1435546875 208 710.1435546875 218 L 710.1435546875 238 Q 710.1435546875 248 700.1435546875 248 L 506 248 Q 496 248 496 238 L 496 218 Q 496 208 506 208 Z"/></g><g transform="translate(10,-38) scale(1,1)"><path fill="none" stroke="#000000" d="M 506 208 L 700.1435546875 208 Q 710.1435546875 208 710.1435546875 218 L 710.1435546875 238 Q 710.1435546875 248 700.1435546875 248 L 506 248 Q 496 248 496 238 L 496 218 Q 496 208 506 208 Z" stroke-miterlimit="10"/></g><g transform="translate(10,-38) scale(1,1)"><g><path fill="none" stroke="none"/><text fill="#000000" stroke="none" font-family="Arial" font-size="13px" font-style="normal" font-weight="bold" text-decoration="none" x="500.5" y="226">Consulte nombre de signalement</text></g></g><g transform="translate(10,-38) scale(1,1)"><path fill="none" stroke="#000000" d="M 585 161 L 597 207" stroke-miterlimit="10"/></g><g transform="translate(10,-38) scale(1,1)"><path fill="none" stroke="#000000" d="M 590.3615162431681 198.2289947320573 L 597 207 L 598.5079204215326 196.1038458159622" stroke-miterlimit="10"/></g><g transform="translate(10,-38) scale(1,1)"><path fill="#C0C0C0" stroke="none" d="M 655 304.5 L 666.5 295 L 677 304.5 L 666.5 313 L 655 304.5" opacity="0.2"/></g><g transform="translate(10,-38) scale(1,1)"><path fill="#ffffff" stroke="none" d="M 648 297 L 659 288 L 670 297 L 659 306 L 648 297"/></g><g transform="translate(10,-38) scale(1,1)"><path fill="none" stroke="#000000" d="M 648 297 L 659 288 L 670 297 L 659 306 L 648 297 L 648 297" stroke-miterlimit="10"/></g><g transform="translate(10,-38) scale(1,1)"><path fill="#C0C0C0" stroke="none" d="M 553 423 L 631.552734375 423 Q 641.552734375 423 641.552734375 433 L 641.552734375 453 Q 641.552734375 463 631.552734375 463 L 553 463 Q 543 463 543 453 L 543 433 Q 543 423 553 423 Z" opacity="0.2"/></g><g transform="translate(10,-38) scale(1,1)"><path fill="#ffffff" stroke="none" d="M 546 416 L 624.552734375 416 Q 634.552734375 416 634.552734375 426 L 634.552734375 446 Q 634.552734375 456 624.552734375 456 L 546 456 Q 536 456 536 446 L 536 426 Q 536 416 546 416 Z"/></g><g transform="translate(10,-38) scale(1,1)"><path fill="none" stroke="#000000" d="M 546 416 L 624.552734375 416 Q 634.552734375 416 634.552734375 426 L 634.552734375 446 Q 634.552734375 456 624.552734375 456 L 546 456 Q 536 456 536 446 L 536 426 Q 536 416 546 416 Z" stroke-miterlimit="10"/></g><g transform="translate(10,-38) scale(1,1)"><g><path fill="none" stroke="none"/><text fill="#000000" stroke="none" font-family="Arial" font-size="13px" font-style="normal" font-weight="bold" text-decoration="none" x="540.5" y="434">Notifier Admin</text></g></g><g transform="translate(10,-38) scale(1,1)"><path fill="#C0C0C0" stroke="none" d="M 505 351 L 578.49365234375 351 Q 588.49365234375 351 588.49365234375 361 L 588.49365234375 381 Q 588.49365234375 391 578.49365234375 391 L 505 391 Q 495 391 495 381 L 495 361 Q 495 351 505 351 Z" opacity="0.2"/></g><g transform="translate(10,-38) scale(1,1)"><path fill="#ffffff" stroke="none" d="M 498 344 L 571.49365234375 344 Q 581.49365234375 344 581.49365234375 354 L 581.49365234375 374 Q 581.49365234375 384 571.49365234375 384 L 498 384 Q 488 384 488 374 L 488 354 Q 488 344 498 344 Z"/></g><g transform="translate(10,-38) scale(1,1)"><path fill="none" stroke="#000000" d="M 498 344 L 571.49365234375 344 Q 581.49365234375 344 581.49365234375 354 L 581.49365234375 374 Q 581.49365234375 384 571.49365234375 384 L 498 384 Q 488 384 488 374 L 488 354 Q 488 344 498 344 Z" stroke-miterlimit="10"/></g><g transform="translate(10,-38) scale(1,1)"><g><path fill="none" stroke="none"/><text fill="#000000" stroke="none" font-family="Arial" font-size="13px" font-style="normal" font-weight="bold" text-decoration="none" x="492.5" y="362">Notifier modo</text></g></g><g transform="translate(10,-38) scale(1,1)"><path fill="none" stroke="#000000" d="M 647 303 L 573 343" stroke-miterlimit="10"/></g><g transform="translate(10,-38) scale(1,1)"><path fill="none" stroke="#000000" d="M 579.9384738681588 334.46433480150034 L 573 343 L 583.9418686670579 341.87061517946364" stroke-miterlimit="10"/></g><g transform="translate(10,-38) scale(1,1)"><path fill="#ffffff" stroke="none" d="M 464 280 L 552 280 L 562 290 L 562 328 L 464 328 L 464 280"/></g><g transform="translate(10,-38) scale(1,1)"><path fill="none" stroke="#000000" d="M 464 280 L 552 280 L 562 290 L 562 328 L 464 328 L 464 280 L 464 280" stroke-miterlimit="10"/></g><g transform="translate(10,-38) scale(1,1)"><path fill="none" stroke="#000000" d="M 552 280 L 552 290 L 562 290 L 552 280" stroke-miterlimit="10"/></g><g transform="translate(10,-38) scale(1,1)"><g><path fill="none" stroke="none"/><text fill="#000000" stroke="none" font-family="Arial" font-size="13px" font-style="normal" font-weight="normal" text-decoration="none" x="469" y="295">+5 en 30j</text></g></g><g transform="translate(10,-38) scale(1,1)"><path fill="none" stroke="#000000" d="M 610 323 L 564 314" stroke-miterlimit="10" stroke-dasharray="3"/></g><g transform="translate(10,-38) scale(1,1)"><path fill="none" stroke="#000000" d="M 654 307 L 596 415" stroke-miterlimit="10"/></g><g transform="translate(10,-38) scale(1,1)"><path fill="none" stroke="#000000" d="M 597.099670494951 404.0551050803338 L 596 415 L 604.5167938811209 408.03837504698055" stroke-miterlimit="10"/></g><g transform="translate(10,-38) scale(1,1)"><path fill="none" stroke="#000000" d="M 535 447 L 290 503" stroke-miterlimit="10"/></g><g transform="translate(10,-38) scale(1,1)"><path fill="none" stroke="#000000" d="M 298.96918507607495 496.6318197991016 L 290 503 L 300.84515499288295 504.8391881851366" stroke-miterlimit="10"/></g><g transform="translate(10,-38) scale(1,1)"><path fill="none" stroke="#000000" d="M 487 353 L 282 305" stroke-miterlimit="10"/></g><g transform="translate(10,-38) scale(1,1)"><path fill="none" stroke="#000000" d="M 292.85473545779035 303.21822612506827 L 282 305 L 290.9353614396949 311.41555266068434" stroke-miterlimit="10"/></g><g transform="translate(10,-38) scale(1,1)"><path fill="#C0C0C0" stroke="none" d="M 407 536.5 L 418.5 527 L 429 536.5 L 418.5 545 L 407 536.5" opacity="0.2"/></g><g transform="translate(10,-38) scale(1,1)"><path fill="#ffffff" stroke="none" d="M 400 529 L 411 520 L 422 529 L 411 538 L 400 529"/></g><g transform="translate(10,-38) scale(1,1)"><path fill="none" stroke="#000000" d="M 400 529 L 411 520 L 422 529 L 411 538 L 400 529 L 400 529" stroke-miterlimit="10"/></g><g transform="translate(10,-38) scale(1,1)"><path fill="none" stroke="#000000" d="M 211 305 L 402 519" stroke-miterlimit="10"/></g><g transform="translate(10,-38) scale(1,1)"><path fill="none" stroke="#000000" d="M 392.09234798852447 514.2210428313799 L 402 519 L 398.37346509798044 508.6149990561178" stroke-miterlimit="10"/></g><g transform="translate(10,-38) scale(1,1)"><path fill="none" stroke="#000000" d="M 300 526 L 399 529" stroke-miterlimit="10"/></g><g transform="translate(10,-38) scale(1,1)"><path fill="none" stroke="#000000" d="M 388.7144853731307 532.8997677957101 L 399 529 L 388.9694906059478 524.4845951127468" stroke-miterlimit="10"/></g><g transform="translate(10,-38) scale(1,1)"><path fill="none" stroke="#000000" d="M 423 528 L 503 519" stroke-miterlimit="10"/></g><g transform="translate(10,-38) scale(1,1)"><path fill="none" stroke="#000000" d="M 493.37163382029814 524.3192635495502 L 503 519 L 492.43042965578024 515.953004309391" stroke-miterlimit="10"/></g><g transform="translate(10,-38) scale(1,1)"><path fill="none" stroke="#000000" d="M 587 529 L 562 551" stroke-miterlimit="10"/></g><g transform="translate(10,-38) scale(1,1)"><path fill="none" stroke="#000000" d="M 566.8483325300421 541.1261116231681 L 562 551 L 572.410182237377 547.4463953815032" stroke-miterlimit="10"/></g><g transform="translate(10,-38) scale(1,1)"><path fill="#C0C0C0" stroke="none" d="M 521 495 L 713.72802734375 495 Q 723.72802734375 495 723.72802734375 505 L 723.72802734375 525 Q 723.72802734375 535 713.72802734375 535 L 521 535 Q 511 535 511 525 L 511 505 Q 511 495 521 495 Z" opacity="0.2"/></g><g transform="translate(10,-38) scale(1,1)"><path fill="#ffffff" stroke="none" d="M 514 488 L 706.72802734375 488 Q 716.72802734375 488 716.72802734375 498 L 716.72802734375 518 Q 716.72802734375 528 706.72802734375 528 L 514 528 Q 504 528 504 518 L 504 498 Q 504 488 514 488 Z"/></g><g transform="translate(10,-38) scale(1,1)"><path fill="none" stroke="#000000" d="M 514 488 L 706.72802734375 488 Q 716.72802734375 488 716.72802734375 498 L 716.72802734375 518 Q 716.72802734375 528 706.72802734375 528 L 514 528 Q 504 528 504 518 L 504 498 Q 504 488 514 488 Z" stroke-miterlimit="10"/></g><g transform="translate(10,-38) scale(1,1)"><g><path fill="none" stroke="none"/><text fill="#000000" stroke="none" font-family="Arial" font-size="13px" font-style="normal" font-weight="bold" text-decoration="none" x="508.5" y="506">Envoyer Mail Decision utilisateur</text></g></g><g transform="translate(10,-38) scale(1,1)"><path fill="#C0C0C0" stroke="none" d="M 543 571.5 C 543 564.59644 548.59644 559 555.5 559 C 562.40356 559 568 564.59644 568 571.5 C 568 578.40356 562.40356 584 555.5 584 C 548.59644 584 543 578.40356 543 571.5 Z" opacity="0.2"/></g><g transform="translate(10,-38) scale(1,1)"><path fill="none" stroke="#000000" d="M 536 564.5 C 536 557.59644 541.59644 552 548.5 552 C 555.40356 552 561 557.59644 561 564.5 C 561 571.40356 555.40356 577 548.5 577 C 541.59644 577 536 571.40356 536 564.5 Z" stroke-miterlimit="10"/></g><g transform="translate(10,-38) scale(1,1)"><path fill="#000000" stroke="none" d="M 541 564.5 C 541 560.357864 544.357864 557 548.5 557 C 552.642136 557 556 560.357864 556 564.5 C 556 568.642136 552.642136 572 548.5 572 C 544.357864 572 541 568.642136 541 564.5 Z"/></g><g transform="translate(10,-38) scale(1,1)"><path fill="none" stroke="#000000" d="M 590 92 L 584 119" stroke-miterlimit="10"/></g><g transform="translate(10,-38) scale(1,1)"><path fill="none" stroke="#000000" d="M 582.0953169464891 108.16615569312219 L 584 119 L 590.313870472564 109.99250092113881" stroke-miterlimit="10"/></g></g></svg>