<svg version="1.1" xmlns="http://www.w3.org/2000/svg" xmlns:xlink="http://www.w3.org/1999/xlink" width="859" height="475"><defs/><g><text fill="#eeeeee" stroke="none" font-family="Arial" font-size="24px" font-style="normal" font-weight="normal" text-decoration="none" x="0" y="0">UNREGISTERED</text><text fill="#eeeeee" stroke="none" font-family="Arial" font-size="24px" font-style="normal" font-weight="normal" text-decoration="none" x="0" y="30">UNREGISTERED</text><text fill="#eeeeee" stroke="none" font-family="Arial" font-size="24px" font-style="normal" font-weight="normal" text-decoration="none" x="0" y="60">UNREGISTERED</text><text fill="#eeeeee" stroke="none" font-family="Arial" font-size="24px" font-style="normal" font-weight="normal" text-decoration="none" x="0" y="90">UNREGISTERED</text><text fill="#eeeeee" stroke="none" font-family="Arial" font-size="24px" font-style="normal" font-weight="normal" text-decoration="none" x="0" y="120">UNREGISTERED</text><text fill="#eeeeee" stroke="none" font-family="Arial" font-size="24px" font-style="normal" font-weight="normal" text-decoration="none" x="0" y="150">UNREGISTERED</text><text fill="#eeeeee" stroke="none" font-family="Arial" font-size="24px" font-style="normal" font-weight="normal" text-decoration="none" x="0" y="180">UNREGISTERED</text><text fill="#eeeeee" stroke="none" font-family="Arial" font-size="24px" font-style="normal" font-weight="normal" text-decoration="none" x="0" y="210">UNREGISTERED</text><text fill="#eeeeee" stroke="none" font-family="Arial" font-size="24px" font-style="normal" font-weight="normal" text-decoration="none" x="0" y="240">UNREGISTERED</text><text fill="#eeeeee" stroke="none" font-family="Arial" font-size="24px" font-style="normal" font-weight="normal" text-decoration="none" x="0" y="270">UNREGISTERED</text><text fill="#eeeeee" stroke="none" font-family="Arial" font-size="24px" font-style="normal" font-weight="normal" text-decoration="none" x="0" y="300">UNREGISTERED</text><text fill="#eeeeee" stroke="none" font-family="Arial" font-size="24px" font-style="normal" font-weight="normal" text-decoration="none" x="0" y="330">UNREGISTERED</text><text fill="#eeeeee" stroke="none" font-family="Arial" font-size="24px" font-style="normal" font-weight="normal" text-decoration="none" x="0" y="360">UNREGISTERED</text><text fill="#eeeeee" stroke="none" font-family="Arial" font-size="24px" font-style="normal" font-weight="normal" text-decoration="none" x="0" y="390">UNREGISTERED</text><text fill="#eeeeee" stroke="none" font-family="Arial" font-size="24px" font-style="normal" font-weight="normal" text-decoration="none" x="0" y="420">UNREGISTERED</text><text fill="#eeeeee" stroke="none" font-family="Arial" font-size="24px" font-style="normal" font-weight="normal" text-decoration="none" x="0" y="450">UNREGISTERED</text><text fill="#eeeeee" stroke="none" font-family="Arial" font-size="24px" font-style="normal" font-weight="normal" text-decoration="none" x="200" y="0">UNREGISTERED</text><text fill="#eeeeee" stroke="none" font-family="Arial" font-size="24px" font-style="normal" font-weight="normal" text-decoration="none" x="200" y="30">UNREGISTERED</text><text fill="#eeeeee" stroke="none" font-family="Arial" font-size="24px" font-style="normal" font-weight="normal" text-decoration="none" x="200" y="60">UNREGISTERED</text><text fill="#eeeeee" stroke="none" font-family="Arial" font-size="24px" font-style="normal" font-weight="normal" text-decoration="none" x="200" y="90">UNREGISTERED</text><text fill="#eeeeee" stroke="none" font-family="Arial" font-size="24px" font-style="normal" font-weight="normal" text-decoration="none" x="200" y="120">UNREGISTERED</text><text fill="#eeeeee" stroke="none" font-family="Arial" font-size="24px" font-style="normal" font-weight="normal" text-decoration="none" x="200" y="150">UNREGISTERED</text><text fill="#eeeeee" stroke="none" font-family="Arial" font-size="24px" font-style="normal" font-weight="normal" text-decoration="none" x="200" y="180">UNREGISTERED</text><text fill="#eeeeee" stroke="none" font-family="Arial" font-size="24px" font-style="normal" font-weight="normal" text-decoration="none" x="200" y="210">UNREGISTERED</text><text fill="#eeeeee" stroke="none" font-family="Arial" font-size="24px" font-style="normal" font-weight="normal" text-decoration="none" x="200" y="240">UNREGISTERED</text><text fill="#eeeeee" stroke="none" font-family="Arial" font-size="24px" font-style="normal" font-weight="normal" text-decoration="none" x="200" y="270">UNREGISTERED</text><text fill="#eeeeee" stroke="none" font-family="Arial" font-size="24px" font-style="normal" font-weight="normal" text-decoration="none" x="200" y="300">UNREGISTERED</text><text fill="#eeeeee" stroke="none" font-family="Arial" font-size="24px" font-style="normal" font-weight="normal" text-decoration="none" x="200" y="330">UNREGISTERED</text><text fill="#eeeeee" stroke="none" font-family="Arial" font-size="24px" font-style="normal" font-weight="normal" text-decoration="none" x="200" y="360">UNREGISTERED</text><text fill="#eeeeee" stroke="none" font-family="Arial" font-size="24px" font-style="normal" font-weight="normal" text-decoration="none" x="200" y="390">UNREGISTERED</text><text fill="#eeeeee" stroke="none" font-family="Arial" font-size="24px" font-style="normal" font-weight="normal" text-decoration="none" x="200" y="420">UNREGISTERED</text><text fill="#eeeeee" stroke="none" font-family="Arial" font-size="24px" font-style="normal" font-weight="normal" text-decoration="none" x="200" y="450">UNREGISTERED</text><text fill="#eeeeee" stroke="none" font-family="Arial" font-size="24px" font-style="normal" font-weight="normal" text-decoration="none" x="400" y="0">UNREGISTERED</text><text fill="#eeeeee" stroke="none" font-family="Arial" font-size="24px" font-style="normal" font-weight="normal" text-decoration="none" x="400" y="30">UNREGISTERED</text><text fill="#eeeeee" stroke="none" font-family="Arial" font-size="24px" font-style="normal" font-weight="normal" text-decoration="none" x="400" y="60">UNREGISTERED</text><text fill="#eeeeee" stroke="none" font-family="Arial" font-size="24px" font-style="normal" font-weight="normal" text-decoration="none" x="400" y="90">UNREGISTERED</text><text fill="#eeeeee" stroke="none" font-family="Arial" font-size="24px" font-style="normal" font-weight="normal" text-decoration="none" x="400" y="120">UNREGISTERED</text><text fill="#eeeeee" stroke="none" font-family="Arial" font-size="24px" font-style="normal" font-weight="normal" text-decoration="none" x="400" y="150">UNREGISTERED</text><text fill="#eeeeee" stroke="none" font-family="Arial" font-size="24px" font-style="normal" font-weight="normal" text-decoration="none" x="400" y="180">UNREGISTERED</text><text fill="#eeeeee" stroke="none" font-family="Arial" font-size="24px" font-style="normal" font-weight="normal" text-decoration="none" x="400" y="210">UNREGISTERED</text><text fill="#eeeeee" stroke="none" font-family="Arial" font-size="24px" font-style="normal" font-weight="normal" text-decoration="none" x="400" y="240">UNREGISTERED</text><text fill="#eeeeee" stroke="none" font-family="Arial" font-size="24px" font-style="normal" font-weight="normal" text-decoration="none" x="400" y="270">UNREGISTERED</text><text fill="#eeeeee" stroke="none" font-family="Arial" font-size="24px" font-style="normal" font-weight="normal" text-decoration="none" x="400" y="300">UNREGISTERED</text><text fill="#eeeeee" stroke="none" font-family="Arial" font-size="24px" font-style="normal" font-weight="normal" text-decoration="none" x="400" y="330">UNREGISTERED</text><text fill="#eeeeee" stroke="none" font-family="Arial" font-size="24px" font-style="normal" font-weight="normal" text-decoration="none" x="400" y="360">UNREGISTERED</text><text fill="#eeeeee" stroke="none" font-family="Arial" font-size="24px" font-style="normal" font-weight="normal" text-decoration="none" x="400" y="390">UNREGISTERED</text><text fill="#eeeeee" stroke="none" font-family="Arial" font-size="24px" font-style="normal" font-weight="normal" text-decoration="none" x="400" y="420">UNREGISTERED</text><text fill="#eeeeee" stroke="none" font-family="Arial" font-size="24px" font-style="normal" font-weight="normal" text-decoration="none" x="400" y="450">UNREGISTERED</text><text fill="#eeeeee" stroke="none" font-family="Arial" font-size="24px" font-style="normal" font-weight="normal" text-decoration="none" x="600" y="0">UNREGISTERED</text><text fill="#eeeeee" stroke="none" font-family="Arial" font-size="24px" font-style="normal" font-weight="normal" text-decoration="none" x="600" y="30">UNREGISTERED</text><text fill="#eeeeee" stroke="none" font-family="Arial" font-size="24px" font-style="normal" font-weight="normal" text-decoration="none" x="600" y="60">UNREGISTERED</text><text fill="#eeeeee" stroke="none" font-family="Arial" font-size="24px" font-style="normal" font-weight="normal" text-decoration="none" x="600" y="90">UNREGISTERED</text><text fill="#eeeeee" stroke="none" font-family="Arial" font-size="24px" font-style="normal" font-weight="normal" text-decoration="none" x="600" y="120">UNREGISTERED</text><text fill="#eeeeee" stroke="none" font-family="Arial" font-size="24px" font-style="normal" font-weight="normal" text-decoration="none" x="600" y="150">UNREGISTERED</text><text fill="#eeeeee" stroke="none" font-family="Arial" font-size="24px" font-style="normal" font-weight="normal" text-decoration="none" x="600" y="180">UNREGISTERED</text><text fill="#eeeeee" stroke="none" font-family="Arial" font-size="24px" font-style="normal" font-weight="normal" text-decoration="none" x="600" y="210">UNREGISTERED</text><text fill="#eeeeee" stroke="none" font-family="Arial" font-size="24px" font-style="normal" font-weight="normal" text-decoration="none" x="600" y="240">UNREGISTERED</text><text fill="#eeeeee" stroke="none" font-family="Arial" font-size="24px" font-style="normal" font-weight="normal" text-decoration="none" x="600" y="270">UNREGISTERED</text><text fill="#eeeeee" stroke="none" font-family="Arial" font-size="24px" font-style="normal" font-weight="normal" text-decoration="none" x="600" y="300">UNREGISTERED</text><text fill="#eeeeee" stroke="none" font-family="Arial" font-size="24px" font-style="normal" font-weight="normal" text-decoration="none" x="600" y="330">UNREGISTERED</text><text fill="#eeeeee" stroke="none" font-family="Arial" font-size="24px" font-style="normal" font-weight="normal" text-decoration="none" x="600" y="360">UNREGISTERED</text><text fill="#eeeeee" stroke="none" font-family="Arial" font-size="24px" font-style="normal" font-weight="normal" text-decoration="none" x="600" y="390">UNREGISTERED</text><text fill="#eeeeee" stroke="none" font-family="Arial" font-size="24px" font-style="normal" font-weight="normal" text-decoration="none" x="600" y="420">UNREGISTERED</text><text fill="#eeeeee" stroke="none" font-family="Arial" font-size="24px" font-style="normal" font-weight="normal" text-decoration="none" x="600" y="450">UNREGISTERED</text><text fill="#eeeeee" stroke="none" font-family="Arial" font-size="24px" font-style="normal" font-weight="normal" text-decoration="none" x="800" y="0">UNREGISTERED</text><text fill="#eeeeee" stroke="none" font-family="Arial" font-size="24px" font-style="normal" font-weight="normal" text-decoration="none" x="800" y="30">UNREGISTERED</text><text fill="#eeeeee" stroke="none" font-family="Arial" font-size="24px" font-style="normal" font-weight="normal" text-decoration="none" x="800" y="60">UNREGISTERED</text><text fill="#eeeeee" stroke="none" font-family="Arial" font-size="24px" font-style="normal" font-weight="normal" text-decoration="none" x="800" y="90">UNREGISTERED</text><text fill="#eeeeee" stroke="none" font-family="Arial" font-size="24px" font-style="normal" font-weight="normal" text-decoration="none" x="800" y="120">UNREGISTERED</text><text fill="#eeeeee" stroke="none" font-family="Arial" font-size="24px" font-style="normal" font-weight="normal" text-decoration="none" x="800" y="150">UNREGISTERED</text><text fill="#eeeeee" stroke="none" font-family="Arial" font-size="24px" font-style="normal" font-weight="normal" text-decoration="none" x="800" y="180">UNREGISTERED</text><text fill="#eeeeee" stroke="none" font-family="Arial" font-size="24px" font-style="normal" font-weight="normal" text-decoration="none" x="800" y="210">UNREGISTERED</text><text fill="#eeeeee" stroke="none" font-family="Arial" font-size="24px" font-style="normal" font-weight="normal" text-decoration="none" x="800" y="240">UNREGISTERED</text><text fill="#eeeeee" stroke="none" font-family="Arial" font-size="24px" font-style="normal" font-weight="normal" text-decoration="none" x="800" y="270">UNREGISTERED</text><text fill="#eeeeee" stroke="none" font-family="Arial" font-size="24px" font-style="normal" font-weight="normal" text-decoration="none" x="800" y="300">UNREGISTERED</text><text fill="#eeeeee" stroke="none" font-family="Arial" font-size="24px" font-style="normal" font-weight="normal" text-decoration="none" x="800" y="330">UNREGISTERED</text><text fill="#eeeeee" stroke="none" font-family="Arial" font-size="24px" font-style="normal" font-weight="normal" text-decoration="none" x="800" y="360">UNREGISTERED</text><text fill="#eeeeee" stroke="none" font-family="Arial" font-size="24px" font-style="normal" font-weight="normal" text-decoration="none" x="800" y="390">UNREGISTERED</text><text fill="#eeeeee" stroke="none" font-family="Arial" font-size="24px" font-style="normal" font-weight="normal" text-decoration="none" x="800" y="420">UNREGISTERED</text><text fill="#eeeeee" stroke="none" font-family="Arial" font-size="24px" font-style="normal" font-weight="normal" text-decoration="none" x="800" y="450">UNREGISTERED</text><g transform="translate(-158,-174) scale(1,1)"><rect fill="#ffffff" stroke="none" x="168" y="184" width="207" height="21"/></g><g transform="translate(-158,-174) scale(1,1)"><path fill="none" stroke="#000000" d="M 168 184 L 375 184 L 375 205 L 168 205 L 168 184 Z Z" stroke-miterlimit="10" stroke-width="2"/></g><g transform="translate(-158,-174) scale(1,1)"><path fill="none" stroke="#000000" d="M 168 639 L 168 184 L 375 184 L 375 639" stroke-miterlimit="10" stroke-width="2"/></g><g transform="translate(-158,-174) scale(1,1)"><g><path fill="none" stroke="none"/><text fill="#000000" stroke="none" font-family="Arial" font-size="13px" font-style="normal" font-weight="normal" text-decoration="none" x="249.943359375" y="198">Visiteur</text></g></g><g transform="translate(-158,-174) scale(1,1)"><rect fill="#ffffff" stroke="none" x="400" y="184" width="319" height="21"/></g><g transform="translate(-158,-174) scale(1,1)"><path fill="none" stroke="#000000" d="M 400 184 L 719 184 L 719 205 L 400 205 L 400 184 Z Z" stroke-miterlimit="10" stroke-width="2"/></g><g transform="translate(-158,-174) scale(1,1)"><path fill="none" stroke="#000000" d="M 400 639 L 400 184 L 719 184 L 719 639" stroke-miterlimit="10" stroke-width="2"/></g><g transform="translate(-158,-174) scale(1,1)"><g><path fill="none" stroke="none"/><text fill="#000000" stroke="none" font-family="Arial" font-size="13px" font-style="normal" font-weight="normal" text-decoration="none" x="510.73095703125" y="198">Interface System</text></g></g><g transform="translate(-158,-174) scale(1,1)"><path fill="#C0C0C0" stroke="none" d="M 439 232.5 C 439 227.2532944 443.2532944 223 448.5 223 C 453.7467056 223 458 227.2532944 458 232.5 C 458 237.7467056 453.7467056 242 448.5 242 C 443.2532944 242 439 237.7467056 439 232.5 Z" opacity="0.2"/></g><g transform="translate(-158,-174) scale(1,1)"><path fill="#000000" stroke="none" d="M 432 225.5 C 432 220.2532944 436.2532944 216 441.5 216 C 446.7467056 216 451 220.2532944 451 225.5 C 451 230.7467056 446.7467056 235 441.5 235 C 436.2532944 235 432 230.7467056 432 225.5 Z"/></g><g transform="translate(-158,-174) scale(1,1)"><path fill="#C0C0C0" stroke="none" d="M 185 223 L 374.09716796875 223 Q 384.09716796875 223 384.09716796875 233 L 384.09716796875 253 Q 384.09716796875 263 374.09716796875 263 L 185 263 Q 175 263 175 253 L 175 233 Q 175 223 185 223 Z" opacity="0.2"/></g><g transform="translate(-158,-174) scale(1,1)"><path fill="#ffffff" stroke="none" d="M 178 216 L 367.09716796875 216 Q 377.09716796875 216 377.09716796875 226 L 377.09716796875 246 Q 377.09716796875 256 367.09716796875 256 L 178 256 Q 168 256 168 246 L 168 226 Q 168 216 178 216 Z"/></g><g transform="translate(-158,-174) scale(1,1)"><path fill="none" stroke="#000000" d="M 178 216 L 367.09716796875 216 Q 377.09716796875 216 377.09716796875 226 L 377.09716796875 246 Q 377.09716796875 256 367.09716796875 256 L 178 256 Q 168 256 168 246 L 168 226 Q 168 216 178 216 Z" stroke-miterlimit="10"/></g><g transform="translate(-158,-174) scale(1,1)"><g><path fill="none" stroke="none"/><text fill="#000000" stroke="none" font-family="Arial" font-size="13px" font-style="normal" font-weight="bold" text-decoration="none" x="172.5" y="234">Selectionner un livre dans biblio</text></g></g><g transform="translate(-158,-174) scale(1,1)"><path fill="#C0C0C0" stroke="none" d="M 433 247 L 532.5126953125 247 Q 542.5126953125 247 542.5126953125 257 L 542.5126953125 277 Q 542.5126953125 287 532.5126953125 287 L 433 287 Q 423 287 423 277 L 423 257 Q 423 247 433 247 Z" opacity="0.2"/></g><g transform="translate(-158,-174) scale(1,1)"><path fill="#ffffff" stroke="none" d="M 426 240 L 525.5126953125 240 Q 535.5126953125 240 535.5126953125 250 L 535.5126953125 270 Q 535.5126953125 280 525.5126953125 280 L 426 280 Q 416 280 416 270 L 416 250 Q 416 240 426 240 Z"/></g><g transform="translate(-158,-174) scale(1,1)"><path fill="none" stroke="#000000" d="M 426 240 L 525.5126953125 240 Q 535.5126953125 240 535.5126953125 250 L 535.5126953125 270 Q 535.5126953125 280 525.5126953125 280 L 426 280 Q 416 280 416 270 L 416 250 Q 416 240 426 240 Z" stroke-miterlimit="10"/></g><g transform="translate(-158,-174) scale(1,1)"><g><path fill="none" stroke="none"/><text fill="#000000" stroke="none" font-family="Arial" font-size="13px" font-style="normal" font-weight="bold" text-decoration="none" x="420.5" y="258">ouvrir popup livre</text></g></g><g transform="translate(-158,-174) scale(1,1)"><path fill="#C0C0C0" stroke="none" d="M 601 407 L 715.353515625 407 Q 725.353515625 407 725.353515625 417 L 725.353515625 437 Q 725.353515625 447 715.353515625 447 L 601 447 Q 591 447 591 437 L 591 417 Q 591 407 601 407 Z" opacity="0.2"/></g><g transform="translate(-158,-174) scale(1,1)"><path fill="#ffffff" stroke="none" d="M 594 400 L 708.353515625 400 Q 718.353515625 400 718.353515625 410 L 718.353515625 430 Q 718.353515625 440 708.353515625 440 L 594 440 Q 584 440 584 430 L 584 410 Q 584 400 594 400 Z"/></g><g transform="translate(-158,-174) scale(1,1)"><path fill="none" stroke="#000000" d="M 594 400 L 708.353515625 400 Q 718.353515625 400 718.353515625 410 L 718.353515625 430 Q 718.353515625 440 708.353515625 440 L 594 440 Q 584 440 584 430 L 584 410 Q 584 400 594 400 Z" stroke-miterlimit="10"/></g><g transform="translate(-158,-174) scale(1,1)"><g><path fill="none" stroke="none"/><text fill="#000000" stroke="none" font-family="Arial" font-size="13px" font-style="normal" font-weight="bold" text-decoration="none" x="588.5" y="418">pas d'option d'achat</text></g></g><g transform="translate(-158,-174) scale(1,1)"><path fill="#C0C0C0" stroke="none" d="M 417 407 L 563.47265625 407 Q 573.47265625 407 573.47265625 417 L 573.47265625 437 Q 573.47265625 447 563.47265625 447 L 417 447 Q 407 447 407 437 L 407 417 Q 407 407 417 407 Z" opacity="0.2"/></g><g transform="translate(-158,-174) scale(1,1)"><path fill="#ffffff" stroke="none" d="M 410 400 L 556.47265625 400 Q 566.47265625 400 566.47265625 410 L 566.47265625 430 Q 566.47265625 440 556.47265625 440 L 410 440 Q 400 440 400 430 L 400 410 Q 400 400 410 400 Z"/></g><g transform="translate(-158,-174) scale(1,1)"><path fill="none" stroke="#000000" d="M 410 400 L 556.47265625 400 Q 566.47265625 400 566.47265625 410 L 566.47265625 430 Q 566.47265625 440 556.47265625 440 L 410 440 Q 400 440 400 430 L 400 410 Q 400 400 410 400 Z" stroke-miterlimit="10"/></g><g transform="translate(-158,-174) scale(1,1)"><g><path fill="none" stroke="none"/><text fill="#000000" stroke="none" font-family="Arial" font-size="13px" font-style="normal" font-weight="bold" text-decoration="none" x="404.5" y="418">afficher liste option achat</text></g></g><g transform="translate(-158,-174) scale(1,1)"><path fill="none" stroke="#000000" d="M 431 226 L 378 229" stroke-miterlimit="10"/></g><g transform="translate(-158,-174) scale(1,1)"><path fill="none" stroke="#000000" d="M 387.9085395450316 224.22288328753163 L 378 229 L 388.3843271258529 232.62846388204096" stroke-miterlimit="10"/></g><g transform="translate(-158,-174) scale(1,1)"><path fill="none" stroke="#000000" d="M 378 249 L 415 253" stroke-miterlimit="10"/></g><g transform="translate(-158,-174) scale(1,1)"><path fill="none" stroke="#000000" d="M 404.4437503079558 256.09282919657977 L 415 253 L 405.3486437609038 247.72256475681044" stroke-miterlimit="10"/></g><g transform="translate(-158,-174) scale(1,1)"><path fill="none" stroke="#000000" d="M 513 281 L 566 311" stroke-miterlimit="10"/></g><g transform="translate(-158,-174) scale(1,1)"><path fill="none" stroke="#000000" d="M 555.0822615862423 309.65724613991995 L 566 311 L 559.2294634923381 302.3305227724841" stroke-miterlimit="10"/></g><g transform="translate(-158,-174) scale(1,1)"><path fill="#C0C0C0" stroke="none" d="M 529 319 L 694.44580078125 319 Q 704.44580078125 319 704.44580078125 329 L 704.44580078125 349 Q 704.44580078125 359 694.44580078125 359 L 529 359 Q 519 359 519 349 L 519 329 Q 519 319 529 319 Z" opacity="0.2"/></g><g transform="translate(-158,-174) scale(1,1)"><path fill="#ffffff" stroke="none" d="M 522 312 L 687.44580078125 312 Q 697.44580078125 312 697.44580078125 322 L 697.44580078125 342 Q 697.44580078125 352 687.44580078125 352 L 522 352 Q 512 352 512 342 L 512 322 Q 512 312 522 312 Z"/></g><g transform="translate(-158,-174) scale(1,1)"><path fill="none" stroke="#000000" d="M 522 312 L 687.44580078125 312 Q 697.44580078125 312 697.44580078125 322 L 697.44580078125 342 Q 697.44580078125 352 687.44580078125 352 L 522 352 Q 512 352 512 342 L 512 322 Q 512 312 522 312 Z" stroke-miterlimit="10"/></g><g transform="translate(-158,-174) scale(1,1)"><g><path fill="none" stroke="none"/><text fill="#000000" stroke="none" font-family="Arial" font-size="13px" font-style="normal" font-weight="bold" text-decoration="none" x="516.5" y="330">demander option d'achat api</text></g></g><g transform="translate(-158,-174) scale(1,1)"><rect fill="#ffffff" stroke="none" x="736" y="184" width="271" height="21"/></g><g transform="translate(-158,-174) scale(1,1)"><path fill="none" stroke="#000000" d="M 736 184 L 1007 184 L 1007 205 L 736 205 L 736 184 Z Z" stroke-miterlimit="10" stroke-width="2"/></g><g transform="translate(-158,-174) scale(1,1)"><path fill="none" stroke="#000000" d="M 736 639 L 736 184 L 1007 184 L 1007 639" stroke-miterlimit="10" stroke-width="2"/></g><g transform="translate(-158,-174) scale(1,1)"><g><path fill="none" stroke="none"/><text fill="#000000" stroke="none" font-family="Arial" font-size="13px" font-style="normal" font-weight="normal" text-decoration="none" x="857.7763671875" y="198">BDD</text></g></g></g></svg>