<svg version="1.1" xmlns="http://www.w3.org/2000/svg" xmlns:xlink="http://www.w3.org/1999/xlink" width="813.18701171875" height="659"><defs/><g><text fill="#eeeeee" stroke="none" font-family="Arial" font-size="24px" font-style="normal" font-weight="normal" text-decoration="none" x="0" y="0">UNREGISTERED</text><text fill="#eeeeee" stroke="none" font-family="Arial" font-size="24px" font-style="normal" font-weight="normal" text-decoration="none" x="0" y="30">UNREGISTERED</text><text fill="#eeeeee" stroke="none" font-family="Arial" font-size="24px" font-style="normal" font-weight="normal" text-decoration="none" x="0" y="60">UNREGISTERED</text><text fill="#eeeeee" stroke="none" font-family="Arial" font-size="24px" font-style="normal" font-weight="normal" text-decoration="none" x="0" y="90">UNREGISTERED</text><text fill="#eeeeee" stroke="none" font-family="Arial" font-size="24px" font-style="normal" font-weight="normal" text-decoration="none" x="0" y="120">UNREGISTERED</text><text fill="#eeeeee" stroke="none" font-family="Arial" font-size="24px" font-style="normal" font-weight="normal" text-decoration="none" x="0" y="150">UNREGISTERED</text><text fill="#eeeeee" stroke="none" font-family="Arial" font-size="24px" font-style="normal" font-weight="normal" text-decoration="none" x="0" y="180">UNREGISTERED</text><text fill="#eeeeee" stroke="none" font-family="Arial" font-size="24px" font-style="normal" font-weight="normal" text-decoration="none" x="0" y="210">UNREGISTERED</text><text fill="#eeeeee" stroke="none" font-family="Arial" font-size="24px" font-style="normal" font-weight="normal" text-decoration="none" x="0" y="240">UNREGISTERED</text><text fill="#eeeeee" stroke="none" font-family="Arial" font-size="24px" font-style="normal" font-weight="normal" text-decoration="none" x="0" y="270">UNREGISTERED</text><text fill="#eeeeee" stroke="none" font-family="Arial" font-size="24px" font-style="normal" font-weight="normal" text-decoration="none" x="0" y="300">UNREGISTERED</text><text fill="#eeeeee" stroke="none" font-family="Arial" font-size="24px" font-style="normal" font-weight="normal" text-decoration="none" x="0" y="330">UNREGISTERED</text><text fill="#eeeeee" stroke="none" font-family="Arial" font-size="24px" font-style="normal" font-weight="normal" text-decoration="none" x="0" y="360">UNREGISTERED</text><text fill="#eeeeee" stroke="none" font-family="Arial" font-size="24px" font-style="normal" font-weight="normal" text-decoration="none" x="0" y="390">UNREGISTERED</text><text fill="#eeeeee" stroke="none" font-family="Arial" font-size="24px" font-style="normal" font-weight="normal" text-decoration="none" x="0" y="420">UNREGISTERED</text><text fill="#eeeeee" stroke="none" font-family="Arial" font-size="24px" font-style="normal" font-weight="normal" text-decoration="none" x="0" y="450">UNREGISTERED</text><text fill="#eeeeee" stroke="none" font-family="Arial" font-size="24px" font-style="normal" font-weight="normal" text-decoration="none" x="0" y="480">UNREGISTERED</text><text fill="#eeeeee" stroke="none" font-family="Arial" font-size="24px" font-style="normal" font-weight="normal" text-decoration="none" x="0" y="510">UNREGISTERED</text><text fill="#eeeeee" stroke="none" font-family="Arial" font-size="24px" font-style="normal" font-weight="normal" text-decoration="none" x="0" y="540">UNREGISTERED</text><text fill="#eeeeee" stroke="none" font-family="Arial" font-size="24px" font-style="normal" font-weight="normal" text-decoration="none" x="0" y="570">UNREGISTERED</text><text fill="#eeeeee" stroke="none" font-family="Arial" font-size="24px" font-style="normal" font-weight="normal" text-decoration="none" x="0" y="600">UNREGISTERED</text><text fill="#eeeeee" stroke="none" font-family="Arial" font-size="24px" font-style="normal" font-weight="normal" text-decoration="none" x="0" y="630">UNREGISTERED</text><text fill="#eeeeee" stroke="none" font-family="Arial" font-size="24px" font-style="normal" font-weight="normal" text-decoration="none" x="200" y="0">UNREGISTERED</text><text fill="#eeeeee" stroke="none" font-family="Arial" font-size="24px" font-style="normal" font-weight="normal" text-decoration="none" x="200" y="30">UNREGISTERED</text><text fill="#eeeeee" stroke="none" font-family="Arial" font-size="24px" font-style="normal" font-weight="normal" text-decoration="none" x="200" y="60">UNREGISTERED</text><text fill="#eeeeee" stroke="none" font-family="Arial" font-size="24px" font-style="normal" font-weight="normal" text-decoration="none" x="200" y="90">UNREGISTERED</text><text fill="#eeeeee" stroke="none" font-family="Arial" font-size="24px" font-style="normal" font-weight="normal" text-decoration="none" x="200" y="120">UNREGISTERED</text><text fill="#eeeeee" stroke="none" font-family="Arial" font-size="24px" font-style="normal" font-weight="normal" text-decoration="none" x="200" y="150">UNREGISTERED</text><text fill="#eeeeee" stroke="none" font-family="Arial" font-size="24px" font-style="normal" font-weight="normal" text-decoration="none" x="200" y="180">UNREGISTERED</text><text fill="#eeeeee" stroke="none" font-family="Arial" font-size="24px" font-style="normal" font-weight="normal" text-decoration="none" x="200" y="210">UNREGISTERED</text><text fill="#eeeeee" stroke="none" font-family="Arial" font-size="24px" font-style="normal" font-weight="normal" text-decoration="none" x="200" y="240">UNREGISTERED</text><text fill="#eeeeee" stroke="none" font-family="Arial" font-size="24px" font-style="normal" font-weight="normal" text-decoration="none" x="200" y="270">UNREGISTERED</text><text fill="#eeeeee" stroke="none" font-family="Arial" font-size="24px" font-style="normal" font-weight="normal" text-decoration="none" x="200" y="300">UNREGISTERED</text><text fill="#eeeeee" stroke="none" font-family="Arial" font-size="24px" font-style="normal" font-weight="normal" text-decoration="none" x="200" y="330">UNREGISTERED</text><text fill="#eeeeee" stroke="none" font-family="Arial" font-size="24px" font-style="normal" font-weight="normal" text-decoration="none" x="200" y="360">UNREGISTERED</text><text fill="#eeeeee" stroke="none" font-family="Arial" font-size="24px" font-style="normal" font-weight="normal" text-decoration="none" x="200" y="390">UNREGISTERED</text><text fill="#eeeeee" stroke="none" font-family="Arial" font-size="24px" font-style="normal" font-weight="normal" text-decoration="none" x="200" y="420">UNREGISTERED</text><text fill="#eeeeee" stroke="none" font-family="Arial" font-size="24px" font-style="normal" font-weight="normal" text-decoration="none" x="200" y="450">UNREGISTERED</text><text fill="#eeeeee" stroke="none" font-family="Arial" font-size="24px" font-style="normal" font-weight="normal" text-decoration="none" x="200" y="480">UNREGISTERED</text><text fill="#eeeeee" stroke="none" font-family="Arial" font-size="24px" font-style="normal" font-weight="normal" text-decoration="none" x="200" y="510">UNREGISTERED</text><text fill="#eeeeee" stroke="none" font-family="Arial" font-size="24px" font-style="normal" font-weight="normal" text-decoration="none" x="200" y="540">UNREGISTERED</text><text fill="#eeeeee" stroke="none" font-family="Arial" font-size="24px" font-style="normal" font-weight="normal" text-decoration="none" x="200" y="570">UNREGISTERED</text><text fill="#eeeeee" stroke="none" font-family="Arial" font-size="24px" font-style="normal" font-weight="normal" text-decoration="none" x="200" y="600">UNREGISTERED</text><text fill="#eeeeee" stroke="none" font-family="Arial" font-size="24px" font-style="normal" font-weight="normal" text-decoration="none" x="200" y="630">UNREGISTERED</text><text fill="#eeeeee" stroke="none" font-family="Arial" font-size="24px" font-style="normal" font-weight="normal" text-decoration="none" x="400" y="0">UNREGISTERED</text><text fill="#eeeeee" stroke="none" font-family="Arial" font-size="24px" font-style="normal" font-weight="normal" text-decoration="none" x="400" y="30">UNREGISTERED</text><text fill="#eeeeee" stroke="none" font-family="Arial" font-size="24px" font-style="normal" font-weight="normal" text-decoration="none" x="400" y="60">UNREGISTERED</text><text fill="#eeeeee" stroke="none" font-family="Arial" font-size="24px" font-style="normal" font-weight="normal" text-decoration="none" x="400" y="90">UNREGISTERED</text><text fill="#eeeeee" stroke="none" font-family="Arial" font-size="24px" font-style="normal" font-weight="normal" text-decoration="none" x="400" y="120">UNREGISTERED</text><text fill="#eeeeee" stroke="none" font-family="Arial" font-size="24px" font-style="normal" font-weight="normal" text-decoration="none" x="400" y="150">UNREGISTERED</text><text fill="#eeeeee" stroke="none" font-family="Arial" font-size="24px" font-style="normal" font-weight="normal" text-decoration="none" x="400" y="180">UNREGISTERED</text><text fill="#eeeeee" stroke="none" font-family="Arial" font-size="24px" font-style="normal" font-weight="normal" text-decoration="none" x="400" y="210">UNREGISTERED</text><text fill="#eeeeee" stroke="none" font-family="Arial" font-size="24px" font-style="normal" font-weight="normal" text-decoration="none" x="400" y="240">UNREGISTERED</text><text fill="#eeeeee" stroke="none" font-family="Arial" font-size="24px" font-style="normal" font-weight="normal" text-decoration="none" x="400" y="270">UNREGISTERED</text><text fill="#eeeeee" stroke="none" font-family="Arial" font-size="24px" font-style="normal" font-weight="normal" text-decoration="none" x="400" y="300">UNREGISTERED</text><text fill="#eeeeee" stroke="none" font-family="Arial" font-size="24px" font-style="normal" font-weight="normal" text-decoration="none" x="400" y="330">UNREGISTERED</text><text fill="#eeeeee" stroke="none" font-family="Arial" font-size="24px" font-style="normal" font-weight="normal" text-decoration="none" x="400" y="360">UNREGISTERED</text><text fill="#eeeeee" stroke="none" font-family="Arial" font-size="24px" font-style="normal" font-weight="normal" text-decoration="none" x="400" y="390">UNREGISTERED</text><text fill="#eeeeee" stroke="none" font-family="Arial" font-size="24px" font-style="normal" font-weight="normal" text-decoration="none" x="400" y="420">UNREGISTERED</text><text fill="#eeeeee" stroke="none" font-family="Arial" font-size="24px" font-style="normal" font-weight="normal" text-decoration="none" x="400" y="450">UNREGISTERED</text><text fill="#eeeeee" stroke="none" font-family="Arial" font-size="24px" font-style="normal" font-weight="normal" text-decoration="none" x="400" y="480">UNREGISTERED</text><text fill="#eeeeee" stroke="none" font-family="Arial" font-size="24px" font-style="normal" font-weight="normal" text-decoration="none" x="400" y="510">UNREGISTERED</text><text fill="#eeeeee" stroke="none" font-family="Arial" font-size="24px" font-style="normal" font-weight="normal" text-decoration="none" x="400" y="540">UNREGISTERED</text><text fill="#eeeeee" stroke="none" font-family="Arial" font-size="24px" font-style="normal" font-weight="normal" text-decoration="none" x="400" y="570">UNREGISTERED</text><text fill="#eeeeee" stroke="none" font-family="Arial" font-size="24px" font-style="normal" font-weight="normal" text-decoration="none" x="400" y="600">UNREGISTERED</text><text fill="#eeeeee" stroke="none" font-family="Arial" font-size="24px" font-style="normal" font-weight="normal" text-decoration="none" x="400" y="630">UNREGISTERED</text><text fill="#eeeeee" stroke="none" font-family="Arial" font-size="24px" font-style="normal" font-weight="normal" text-decoration="none" x="600" y="0">UNREGISTERED</text><text fill="#eeeeee" stroke="none" font-family="Arial" font-size="24px" font-style="normal" font-weight="normal" text-decoration="none" x="600" y="30">UNREGISTERED</text><text fill="#eeeeee" stroke="none" font-family="Arial" font-size="24px" font-style="normal" font-weight="normal" text-decoration="none" x="600" y="60">UNREGISTERED</text><text fill="#eeeeee" stroke="none" font-family="Arial" font-size="24px" font-style="normal" font-weight="normal" text-decoration="none" x="600" y="90">UNREGISTERED</text><text fill="#eeeeee" stroke="none" font-family="Arial" font-size="24px" font-style="normal" font-weight="normal" text-decoration="none" x="600" y="120">UNREGISTERED</text><text fill="#eeeeee" stroke="none" font-family="Arial" font-size="24px" font-style="normal" font-weight="normal" text-decoration="none" x="600" y="150">UNREGISTERED</text><text fill="#eeeeee" stroke="none" font-family="Arial" font-size="24px" font-style="normal" font-weight="normal" text-decoration="none" x="600" y="180">UNREGISTERED</text><text fill="#eeeeee" stroke="none" font-family="Arial" font-size="24px" font-style="normal" font-weight="normal" text-decoration="none" x="600" y="210">UNREGISTERED</text><text fill="#eeeeee" stroke="none" font-family="Arial" font-size="24px" font-style="normal" font-weight="normal" text-decoration="none" x="600" y="240">UNREGISTERED</text><text fill="#eeeeee" stroke="none" font-family="Arial" font-size="24px" font-style="normal" font-weight="normal" text-decoration="none" x="600" y="270">UNREGISTERED</text><text fill="#eeeeee" stroke="none" font-family="Arial" font-size="24px" font-style="normal" font-weight="normal" text-decoration="none" x="600" y="300">UNREGISTERED</text><text fill="#eeeeee" stroke="none" font-family="Arial" font-size="24px" font-style="normal" font-weight="normal" text-decoration="none" x="600" y="330">UNREGISTERED</text><text fill="#eeeeee" stroke="none" font-family="Arial" font-size="24px" font-style="normal" font-weight="normal" text-decoration="none" x="600" y="360">UNREGISTERED</text><text fill="#eeeeee" stroke="none" font-family="Arial" font-size="24px" font-style="normal" font-weight="normal" text-decoration="none" x="600" y="390">UNREGISTERED</text><text fill="#eeeeee" stroke="none" font-family="Arial" font-size="24px" font-style="normal" font-weight="normal" text-decoration="none" x="600" y="420">UNREGISTERED</text><text fill="#eeeeee" stroke="none" font-family="Arial" font-size="24px" font-style="normal" font-weight="normal" text-decoration="none" x="600" y="450">UNREGISTERED</text><text fill="#eeeeee" stroke="none" font-family="Arial" font-size="24px" font-style="normal" font-weight="normal" text-decoration="none" x="600" y="480">UNREGISTERED</text><text fill="#eeeeee" stroke="none" font-family="Arial" font-size="24px" font-style="normal" font-weight="normal" text-decoration="none" x="600" y="510">UNREGISTERED</text><text fill="#eeeeee" stroke="none" font-family="Arial" font-size="24px" font-style="normal" font-weight="normal" text-decoration="none" x="600" y="540">UNREGISTERED</text><text fill="#eeeeee" stroke="none" font-family="Arial" font-size="24px" font-style="normal" font-weight="normal" text-decoration="none" x="600" y="570">UNREGISTERED</text><text fill="#eeeeee" stroke="none" font-family="Arial" font-size="24px" font-style="normal" font-weight="normal" text-decoration="none" x="600" y="600">UNREGISTERED</text><text fill="#eeeeee" stroke="none" font-family="Arial" font-size="24px" font-style="normal" font-weight="normal" text-decoration="none" x="600" y="630">UNREGISTERED</text><text fill="#eeeeee" stroke="none" font-family="Arial" font-size="24px" font-style="normal" font-weight="normal" text-decoration="none" x="800" y="0">UNREGISTERED</text><text fill="#eeeeee" stroke="none" font-family="Arial" font-size="24px" font-style="normal" font-weight="normal" text-decoration="none" x="800" y="30">UNREGISTERED</text><text fill="#eeeeee" stroke="none" font-family="Arial" font-size="24px" font-style="normal" font-weight="normal" text-decoration="none" x="800" y="60">UNREGISTERED</text><text fill="#eeeeee" stroke="none" font-family="Arial" font-size="24px" font-style="normal" font-weight="normal" text-decoration="none" x="800" y="90">UNREGISTERED</text><text fill="#eeeeee" stroke="none" font-family="Arial" font-size="24px" font-style="normal" font-weight="normal" text-decoration="none" x="800" y="120">UNREGISTERED</text><text fill="#eeeeee" stroke="none" font-family="Arial" font-size="24px" font-style="normal" font-weight="normal" text-decoration="none" x="800" y="150">UNREGISTERED</text><text fill="#eeeeee" stroke="none" font-family="Arial" font-size="24px" font-style="normal" font-weight="normal" text-decoration="none" x="800" y="180">UNREGISTERED</text><text fill="#eeeeee" stroke="none" font-family="Arial" font-size="24px" font-style="normal" font-weight="normal" text-decoration="none" x="800" y="210">UNREGISTERED</text><text fill="#eeeeee" stroke="none" font-family="Arial" font-size="24px" font-style="normal" font-weight="normal" text-decoration="none" x="800" y="240">UNREGISTERED</text><text fill="#eeeeee" stroke="none" font-family="Arial" font-size="24px" font-style="normal" font-weight="normal" text-decoration="none" x="800" y="270">UNREGISTERED</text><text fill="#eeeeee" stroke="none" font-family="Arial" font-size="24px" font-style="normal" font-weight="normal" text-decoration="none" x="800" y="300">UNREGISTERED</text><text fill="#eeeeee" stroke="none" font-family="Arial" font-size="24px" font-style="normal" font-weight="normal" text-decoration="none" x="800" y="330">UNREGISTERED</text><text fill="#eeeeee" stroke="none" font-family="Arial" font-size="24px" font-style="normal" font-weight="normal" text-decoration="none" x="800" y="360">UNREGISTERED</text><text fill="#eeeeee" stroke="none" font-family="Arial" font-size="24px" font-style="normal" font-weight="normal" text-decoration="none" x="800" y="390">UNREGISTERED</text><text fill="#eeeeee" stroke="none" font-family="Arial" font-size="24px" font-style="normal" font-weight="normal" text-decoration="none" x="800" y="420">UNREGISTERED</text><text fill="#eeeeee" stroke="none" font-family="Arial" font-size="24px" font-style="normal" font-weight="normal" text-decoration="none" x="800" y="450">UNREGISTERED</text><text fill="#eeeeee" stroke="none" font-family="Arial" font-size="24px" font-style="normal" font-weight="normal" text-decoration="none" x="800" y="480">UNREGISTERED</text><text fill="#eeeeee" stroke="none" font-family="Arial" font-size="24px" font-style="normal" font-weight="normal" text-decoration="none" x="800" y="510">UNREGISTERED</text><text fill="#eeeeee" stroke="none" font-family="Arial" font-size="24px" font-style="normal" font-weight="normal" text-decoration="none" x="800" y="540">UNREGISTERED</text><text fill="#eeeeee" stroke="none" font-family="Arial" font-size="24px" font-style="normal" font-weight="normal" text-decoration="none" x="800" y="570">UNREGISTERED</text><text fill="#eeeeee" stroke="none" font-family="Arial" font-size="24px" font-style="normal" font-weight="normal" text-decoration="none" x="800" y="600">UNREGISTERED</text><text fill="#eeeeee" stroke="none" font-family="Arial" font-size="24px" font-style="normal" font-weight="normal" text-decoration="none" x="800" y="630">UNREGISTERED</text><g transform="translate(-86,-70) scale(1,1)"><rect fill="#ffffff" stroke="none" x="96" y="88" width="343" height="21"/></g><g transform="translate(-86,-70) scale(1,1)"><path fill="none" stroke="#000000" d="M 96 88 L 439 88 L 439 109 L 96 109 L 96 88 Z Z" stroke-miterlimit="10" stroke-width="2"/></g><g transform="translate(-86,-70) scale(1,1)"><path fill="none" stroke="#000000" d="M 96 719 L 96 88 L 439 88 L 439 719" stroke-miterlimit="10" stroke-width="2"/></g><g transform="translate(-86,-70) scale(1,1)"><g><path fill="none" stroke="none"/><text fill="#000000" stroke="none" font-family="Arial" font-size="13px" font-style="normal" font-weight="normal" text-decoration="none" x="239.681396484375" y="102">utilisateur</text></g></g><g transform="translate(-86,-70) scale(1,1)"><rect fill="#ffffff" stroke="none" x="520" y="80" width="367" height="21"/></g><g transform="translate(-86,-70) scale(1,1)"><path fill="none" stroke="#000000" d="M 520 80 L 887 80 L 887 101 L 520 101 L 520 80 Z Z" stroke-miterlimit="10" stroke-width="2"/></g><g transform="translate(-86,-70) scale(1,1)"><path fill="none" stroke="#000000" d="M 520 719 L 520 80 L 887 80 L 887 719" stroke-miterlimit="10" stroke-width="2"/></g><g transform="translate(-86,-70) scale(1,1)"><g><path fill="none" stroke="none"/><text fill="#000000" stroke="none" font-family="Arial" font-size="13px" font-style="normal" font-weight="normal" text-decoration="none" x="682.91455078125" y="93">system</text></g></g><g transform="translate(-86,-70) scale(1,1)"><path fill="#C0C0C0" stroke="none" d="M 537 151 L 739.8271484375 151 Q 749.8271484375 151 749.8271484375 161 L 749.8271484375 181 Q 749.8271484375 191 739.8271484375 191 L 537 191 Q 527 191 527 181 L 527 161 Q 527 151 537 151 Z" opacity="0.2"/></g><g transform="translate(-86,-70) scale(1,1)"><path fill="#ffffff" stroke="none" d="M 530 144 L 732.8271484375 144 Q 742.8271484375 144 742.8271484375 154 L 742.8271484375 174 Q 742.8271484375 184 732.8271484375 184 L 530 184 Q 520 184 520 174 L 520 154 Q 520 144 530 144 Z"/></g><g transform="translate(-86,-70) scale(1,1)"><path fill="none" stroke="#000000" d="M 530 144 L 732.8271484375 144 Q 742.8271484375 144 742.8271484375 154 L 742.8271484375 174 Q 742.8271484375 184 732.8271484375 184 L 530 184 Q 520 184 520 174 L 520 154 Q 520 144 530 144 Z" stroke-miterlimit="10"/></g><g transform="translate(-86,-70) scale(1,1)"><g><path fill="none" stroke="none"/><text fill="#000000" stroke="none" font-family="Arial" font-size="13px" font-style="normal" font-weight="bold" text-decoration="none" x="557.380859375" y="162">afficher popup info livre</text></g></g><g transform="translate(-86,-70) scale(1,1)"><path fill="#C0C0C0" stroke="none" d="M 273 207 L 424.525390625 207 Q 434.525390625 207 434.525390625 217 L 434.525390625 237 Q 434.525390625 247 424.525390625 247 L 273 247 Q 263 247 263 237 L 263 217 Q 263 207 273 207 Z" opacity="0.2"/></g><g transform="translate(-86,-70) scale(1,1)"><path fill="#ffffff" stroke="none" d="M 266 200 L 417.525390625 200 Q 427.525390625 200 427.525390625 210 L 427.525390625 230 Q 427.525390625 240 417.525390625 240 L 266 240 Q 256 240 256 230 L 256 210 Q 256 200 266 200 Z"/></g><g transform="translate(-86,-70) scale(1,1)"><path fill="none" stroke="#000000" d="M 266 200 L 417.525390625 200 Q 427.525390625 200 427.525390625 210 L 427.525390625 230 Q 427.525390625 240 417.525390625 240 L 266 240 Q 256 240 256 230 L 256 210 Q 256 200 266 200 Z" stroke-miterlimit="10"/></g><g transform="translate(-86,-70) scale(1,1)"><g><path fill="none" stroke="none"/><text fill="#000000" stroke="none" font-family="Arial" font-size="13px" font-style="normal" font-weight="bold" text-decoration="none" x="265.200439453125" y="218">Remplir infos obligatoire</text></g></g><g transform="translate(-86,-70) scale(1,1)"><path fill="#C0C0C0" stroke="none" d="M 657 207 L 850.46435546875 207 Q 860.46435546875 207 860.46435546875 217 L 860.46435546875 237 Q 860.46435546875 247 850.46435546875 247 L 657 247 Q 647 247 647 237 L 647 217 Q 647 207 657 207 Z" opacity="0.2"/></g><g transform="translate(-86,-70) scale(1,1)"><path fill="#ffffff" stroke="none" d="M 650 200 L 843.46435546875 200 Q 853.46435546875 200 853.46435546875 210 L 853.46435546875 230 Q 853.46435546875 240 843.46435546875 240 L 650 240 Q 640 240 640 230 L 640 210 Q 640 200 650 200 Z"/></g><g transform="translate(-86,-70) scale(1,1)"><path fill="none" stroke="#000000" d="M 650 200 L 843.46435546875 200 Q 853.46435546875 200 853.46435546875 210 L 853.46435546875 230 Q 853.46435546875 240 843.46435546875 240 L 650 240 Q 640 240 640 230 L 640 210 Q 640 200 650 200 Z" stroke-miterlimit="10"/></g><g transform="translate(-86,-70) scale(1,1)"><g><path fill="none" stroke="none"/><text fill="#000000" stroke="none" font-family="Arial" font-size="13px" font-style="normal" font-weight="bold" text-decoration="none" x="644.5" y="218">afficher "remplir info obligatoire"</text></g></g><g transform="translate(-86,-70) scale(1,1)"><path fill="#C0C0C0" stroke="none" d="M 273 119 L 433.2216796875 119 Q 443.2216796875 119 443.2216796875 129 L 443.2216796875 149 Q 443.2216796875 159 433.2216796875 159 L 273 159 Q 263 159 263 149 L 263 129 Q 263 119 273 119 Z" opacity="0.2"/></g><g transform="translate(-86,-70) scale(1,1)"><path fill="#ffffff" stroke="none" d="M 266 112 L 426.2216796875 112 Q 436.2216796875 112 436.2216796875 122 L 436.2216796875 142 Q 436.2216796875 152 426.2216796875 152 L 266 152 Q 256 152 256 142 L 256 122 Q 256 112 266 112 Z"/></g><g transform="translate(-86,-70) scale(1,1)"><path fill="none" stroke="#000000" d="M 266 112 L 426.2216796875 112 Q 436.2216796875 112 436.2216796875 122 L 436.2216796875 142 Q 436.2216796875 152 426.2216796875 152 L 266 152 Q 256 152 256 142 L 256 122 Q 256 112 266 112 Z" stroke-miterlimit="10"/></g><g transform="translate(-86,-70) scale(1,1)"><g><path fill="none" stroke="none"/><text fill="#000000" stroke="none" font-family="Arial" font-size="13px" font-style="normal" font-weight="bold" text-decoration="none" x="260.5" y="130">Demander à ajouter un livre</text></g></g><g transform="translate(-86,-70) scale(1,1)"><path fill="#C0C0C0" stroke="none" d="M 545 303 L 810.68798828125 303 Q 820.68798828125 303 820.68798828125 313 L 820.68798828125 333 Q 820.68798828125 343 810.68798828125 343 L 545 343 Q 535 343 535 333 L 535 313 Q 535 303 545 303 Z" opacity="0.2"/></g><g transform="translate(-86,-70) scale(1,1)"><path fill="#ffffff" stroke="none" d="M 538 296 L 803.68798828125 296 Q 813.68798828125 296 813.68798828125 306 L 813.68798828125 326 Q 813.68798828125 336 803.68798828125 336 L 538 336 Q 528 336 528 326 L 528 306 Q 528 296 538 296 Z"/></g><g transform="translate(-86,-70) scale(1,1)"><path fill="none" stroke="#000000" d="M 538 296 L 803.68798828125 296 Q 813.68798828125 296 813.68798828125 306 L 813.68798828125 326 Q 813.68798828125 336 803.68798828125 336 L 538 336 Q 528 336 528 326 L 528 306 Q 528 296 538 296 Z" stroke-miterlimit="10"/></g><g transform="translate(-86,-70) scale(1,1)"><g><path fill="none" stroke="none"/><text fill="#000000" stroke="none" font-family="Arial" font-size="13px" font-style="normal" font-weight="bold" text-decoration="none" x="532.5" y="314">Verifier si infos obligatoires sont complétées</text></g></g><g transform="translate(-86,-70) scale(1,1)"><path fill="#ffffff" stroke="none" d="M 104 304 L 263.01708984375 304 L 273.01708984375 314 L 273.01708984375 343 L 104 343 L 104 304"/></g><g transform="translate(-86,-70) scale(1,1)"><path fill="none" stroke="#000000" d="M 104 304 L 263.01708984375 304 L 273.01708984375 314 L 273.01708984375 343 L 104 343 L 104 304 L 104 304" stroke-miterlimit="10"/></g><g transform="translate(-86,-70) scale(1,1)"><path fill="none" stroke="#000000" d="M 263.01708984375 304 L 263.01708984375 314 L 273.01708984375 314 L 263.01708984375 304" stroke-miterlimit="10"/></g><g transform="translate(-86,-70) scale(1,1)"><g><path fill="none" stroke="none"/><text fill="#000000" stroke="none" font-family="Arial" font-size="13px" font-style="normal" font-weight="normal" text-decoration="none" x="109" y="319">Titre/Année/1</text><text fill="#000000" stroke="none" font-family="Arial" font-size="13px" font-style="normal" font-weight="normal" text-decoration="none" x="109" y="332">tag/Auteur/CoverImg/Note</text></g></g><g transform="translate(-86,-70) scale(1,1)"><path fill="none" stroke="#000000" d="M 220 303 L 310 241" stroke-miterlimit="10" stroke-dasharray="3"/></g><g transform="translate(-86,-70) scale(1,1)"><path fill="none" stroke="#000000" d="M 437 142 L 519 151" stroke-miterlimit="10"/></g><g transform="translate(-86,-70) scale(1,1)"><path fill="none" stroke="#000000" d="M 508.4387271339864 154.075632528376 L 519 151 L 509.3572517212277 145.70685295573287" stroke-miterlimit="10"/></g><g transform="translate(-86,-70) scale(1,1)"><path fill="none" stroke="#000000" d="M 522 185 L 429 203" stroke-miterlimit="10"/></g><g transform="translate(-86,-70) scale(1,1)"><path fill="none" stroke="#000000" d="M 438.1776088135949 196.9360494341868 L 429 203 L 439.7774099930368 205.20168886130384" stroke-miterlimit="10"/></g><g transform="translate(-86,-70) scale(1,1)"><path fill="none" stroke="#000000" d="M 639 220 L 429 220" stroke-miterlimit="10"/></g><g transform="translate(-86,-70) scale(1,1)"><path fill="none" stroke="#000000" d="M 439.16267485762415 215.790482243984 L 429 220 L 439.16267485762415 224.209517756016" stroke-miterlimit="10"/></g><g transform="translate(-86,-70) scale(1,1)"><path fill="none" stroke="#000000" d="M 527 122 L 437 127" stroke-miterlimit="10"/></g><g transform="translate(-86,-70) scale(1,1)"><path fill="none" stroke="#000000" d="M 446.9135258953276 122.23323964073408 L 437 127 L 447.3805299603827 130.63931281172646" stroke-miterlimit="10"/></g><g transform="translate(-86,-70) scale(1,1)"><path fill="none" stroke="#000000" d="M 815 617 L 818 647" stroke-miterlimit="10"/></g><g transform="translate(-86,-70) scale(1,1)"><path fill="none" stroke="#000000" d="M 812.80014933638 637.3066232366605 L 818 647 L 821.1774027765504 636.4688978926434" stroke-miterlimit="10"/></g><g transform="translate(-86,-70) scale(1,1)"><path fill="#C0C0C0" stroke="none" d="M 753 583 L 886.18701171875 583 Q 896.18701171875 583 896.18701171875 593 L 896.18701171875 613 Q 896.18701171875 623 886.18701171875 623 L 753 623 Q 743 623 743 613 L 743 593 Q 743 583 753 583 Z" opacity="0.2"/></g><g transform="translate(-86,-70) scale(1,1)"><path fill="#ffffff" stroke="none" d="M 746 576 L 879.18701171875 576 Q 889.18701171875 576 889.18701171875 586 L 889.18701171875 606 Q 889.18701171875 616 879.18701171875 616 L 746 616 Q 736 616 736 606 L 736 586 Q 736 576 746 576 Z"/></g><g transform="translate(-86,-70) scale(1,1)"><path fill="none" stroke="#000000" d="M 746 576 L 879.18701171875 576 Q 889.18701171875 576 889.18701171875 586 L 889.18701171875 606 Q 889.18701171875 616 879.18701171875 616 L 746 616 Q 736 616 736 606 L 736 586 Q 736 576 746 576 Z" stroke-miterlimit="10"/></g><g transform="translate(-86,-70) scale(1,1)"><g><path fill="none" stroke="none"/><text fill="#000000" stroke="none" font-family="Arial" font-size="13px" font-style="normal" font-weight="bold" text-decoration="none" x="740.5" y="594">Afficher "ajout réussi""</text></g></g><g transform="translate(-86,-70) scale(1,1)"><path fill="#C0C0C0" stroke="none" d="M 815 667.5 C 815 660.59644 820.59644 655 827.5 655 C 834.40356 655 840 660.59644 840 667.5 C 840 674.40356 834.40356 680 827.5 680 C 820.59644 680 815 674.40356 815 667.5 Z" opacity="0.2"/></g><g transform="translate(-86,-70) scale(1,1)"><path fill="none" stroke="#000000" d="M 808 660.5 C 808 653.59644 813.59644 648 820.5 648 C 827.40356 648 833 653.59644 833 660.5 C 833 667.40356 827.40356 673 820.5 673 C 813.59644 673 808 667.40356 808 660.5 Z" stroke-miterlimit="10"/></g><g transform="translate(-86,-70) scale(1,1)"><path fill="#000000" stroke="none" d="M 813 660.5 C 813 656.357864 816.357864 653 820.5 653 C 824.642136 653 828 656.357864 828 660.5 C 828 664.642136 824.642136 668 820.5 668 C 816.357864 668 813 664.642136 813 660.5 Z"/></g><g transform="translate(-86,-70) scale(1,1)"><path fill="#C0C0C0" stroke="none" d="M 545 407 L 729.31103515625 407 Q 739.31103515625 407 739.31103515625 417 L 739.31103515625 437 Q 739.31103515625 447 729.31103515625 447 L 545 447 Q 535 447 535 437 L 535 417 Q 535 407 545 407 Z" opacity="0.2"/></g><g transform="translate(-86,-70) scale(1,1)"><path fill="#ffffff" stroke="none" d="M 538 400 L 722.31103515625 400 Q 732.31103515625 400 732.31103515625 410 L 732.31103515625 430 Q 732.31103515625 440 722.31103515625 440 L 538 440 Q 528 440 528 430 L 528 410 Q 528 400 538 400 Z"/></g><g transform="translate(-86,-70) scale(1,1)"><path fill="none" stroke="#000000" d="M 538 400 L 722.31103515625 400 Q 732.31103515625 400 732.31103515625 410 L 732.31103515625 430 Q 732.31103515625 440 722.31103515625 440 L 538 440 Q 528 440 528 430 L 528 410 Q 528 400 538 400 Z" stroke-miterlimit="10"/></g><g transform="translate(-86,-70) scale(1,1)"><g><path fill="none" stroke="none"/><text fill="#000000" stroke="none" font-family="Arial" font-size="13px" font-style="normal" font-weight="bold" text-decoration="none" x="532.5" y="418">verifier si livre n'existe pas déjà</text></g></g><g transform="translate(-86,-70) scale(1,1)"><path fill="#C0C0C0" stroke="none" d="M 802 519 L 865 519 Q 868 519 868 522 L 868 521 Q 868 524 865 524 L 802 524 Q 799 524 799 521 L 799 522 Q 799 519 802 519 Z" opacity="0.2"/></g><g transform="translate(-86,-70) scale(1,1)"><path fill="#000000" stroke="none" d="M 795 512 L 858 512 Q 861 512 861 515 L 861 515 Q 861 518 858 518 L 795 518 Q 792 518 792 515 L 792 515 Q 792 512 795 512 Z"/></g><g transform="translate(-86,-70) scale(1,1)"><path fill="none" stroke="#000000" d="M 825 518 L 816 575" stroke-miterlimit="10"/></g><g transform="translate(-86,-70) scale(1,1)"><path fill="none" stroke="#000000" d="M 813.4269911828768 564.3051589246494 L 816 575 L 821.7430026654522 565.6182133692665" stroke-miterlimit="10"/></g><g transform="translate(-86,-70) scale(1,1)"><path fill="none" stroke="#000000" d="M 622 441 L 615 463" stroke-miterlimit="10"/></g><g transform="translate(-86,-70) scale(1,1)"><path fill="none" stroke="#000000" d="M 614.0700021934169 452.03938395528104 L 615 463 L 622.0927181756794 454.5920663132736" stroke-miterlimit="10"/></g><g transform="translate(-86,-70) scale(1,1)"><path fill="none" stroke="#000000" d="M 622 472 L 792 472 L 792 512" stroke-miterlimit="10"/></g><g transform="translate(-86,-70) scale(1,1)"><path fill="none" stroke="#000000" d="M 787.790482243984 501.83732514237585 L 792 512 L 796.209517756016 501.83732514237585" stroke-miterlimit="10"/></g><g transform="translate(-86,-70) scale(1,1)"><path fill="#C0C0C0" stroke="none" d="M 607 480.5 L 618.5 471 L 629 480.5 L 618.5 489 L 607 480.5" opacity="0.2"/></g><g transform="translate(-86,-70) scale(1,1)"><path fill="#ffffff" stroke="none" d="M 600 473 L 611 464 L 622 473 L 611 482 L 600 473"/></g><g transform="translate(-86,-70) scale(1,1)"><path fill="none" stroke="#000000" d="M 600 473 L 611 464 L 622 473 L 611 482 L 600 473 L 600 473" stroke-miterlimit="10"/></g><g transform="translate(-86,-70) scale(1,1)"><path fill="#C0C0C0" stroke="none" d="M 537 575 L 706.6796875 575 Q 716.6796875 575 716.6796875 585 L 716.6796875 605 Q 716.6796875 615 706.6796875 615 L 537 615 Q 527 615 527 605 L 527 585 Q 527 575 537 575 Z" opacity="0.2"/></g><g transform="translate(-86,-70) scale(1,1)"><path fill="#ffffff" stroke="none" d="M 530 568 L 699.6796875 568 Q 709.6796875 568 709.6796875 578 L 709.6796875 598 Q 709.6796875 608 699.6796875 608 L 530 608 Q 520 608 520 598 L 520 578 Q 520 568 530 568 Z"/></g><g transform="translate(-86,-70) scale(1,1)"><path fill="none" stroke="#000000" d="M 530 568 L 699.6796875 568 Q 709.6796875 568 709.6796875 578 L 709.6796875 598 Q 709.6796875 608 699.6796875 608 L 530 608 Q 520 608 520 598 L 520 578 Q 520 568 530 568 Z" stroke-miterlimit="10"/></g><g transform="translate(-86,-70) scale(1,1)"><g><path fill="none" stroke="none"/><text fill="#000000" stroke="none" font-family="Arial" font-size="13px" font-style="normal" font-weight="bold" text-decoration="none" x="524.5" y="586">Afficher "Le livre existe déjà"</text></g></g><g transform="translate(-86,-70) scale(1,1)"><path fill="none" stroke="#000000" d="M 600 473 L 560 473 L 560 568" stroke-miterlimit="10"/></g><g transform="translate(-86,-70) scale(1,1)"><path fill="none" stroke="#000000" d="M 555.790482243984 557.8373251423759 L 560 568 L 564.209517756016 557.8373251423759" stroke-miterlimit="10"/></g><g transform="translate(-86,-70) scale(1,1)"><g><path fill="none" stroke="none"/><text fill="#000000" stroke="none" font-family="Arial" font-size="13px" font-style="normal" font-weight="normal" text-decoration="none" x="565.858642578125" y="477">NV</text></g></g><g transform="translate(-86,-70) scale(1,1)"><path fill="#C0C0C0" stroke="none" d="M 535 128.5 C 535 123.2532944 539.2532944 119 544.5 119 C 549.7467056 119 554 123.2532944 554 128.5 C 554 133.7467056 549.7467056 138 544.5 138 C 539.2532944 138 535 133.7467056 535 128.5 Z" opacity="0.2"/></g><g transform="translate(-86,-70) scale(1,1)"><path fill="#000000" stroke="none" d="M 528 121.5 C 528 116.2532944 532.2532944 112 537.5 112 C 542.7467056 112 547 116.2532944 547 121.5 C 547 126.7467056 542.7467056 131 537.5 131 C 532.2532944 131 528 126.7467056 528 121.5 Z"/></g><g transform="translate(-86,-70) scale(1,1)"><path fill="none" stroke="#000000" d="M 413 241 L 598 295" stroke-miterlimit="10"/></g><g transform="translate(-86,-70) scale(1,1)"><path fill="none" stroke="#000000" d="M 587.0649192502453 296.19331848068526 L 598 295 L 589.4239266592182 288.1115338388338" stroke-miterlimit="10"/></g><g transform="translate(-86,-70) scale(1,1)"><path fill="none" stroke="#000000" d="M 595 609 L 576 631" stroke-miterlimit="10"/></g><g transform="translate(-86,-70) scale(1,1)"><path fill="none" stroke="#000000" d="M 579.4566663334441 620.5572293973661 L 576 631 L 585.8283861121755 626.0600782971796" stroke-miterlimit="10"/></g><g transform="translate(-86,-70) scale(1,1)"><path fill="#C0C0C0" stroke="none" d="M 559 651.5 C 559 644.59644 564.59644 639 571.5 639 C 578.40356 639 584 644.59644 584 651.5 C 584 658.40356 578.40356 664 571.5 664 C 564.59644 664 559 658.40356 559 651.5 Z" opacity="0.2"/></g><g transform="translate(-86,-70) scale(1,1)"><path fill="#ffffff" stroke="none" d="M 552 644.5 C 552 637.59644 557.59644 632 564.5 632 C 571.40356 632 577 637.59644 577 644.5 C 577 651.40356 571.40356 657 564.5 657 C 557.59644 657 552 651.40356 552 644.5 Z"/></g><g transform="translate(-86,-70) scale(1,1)"><path fill="none" stroke="#000000" d="M 552 644.5 C 552 637.59644 557.59644 632 564.5 632 C 571.40356 632 577 637.59644 577 644.5 C 577 651.40356 571.40356 657 564.5 657 C 557.59644 657 552 651.40356 552 644.5 Z" stroke-miterlimit="10"/></g><g transform="translate(-86,-70) scale(1,1)"><path fill="none" stroke="#000000" d="M 555 635 L 573 653" stroke-miterlimit="10"/></g><g transform="translate(-86,-70) scale(1,1)"><path fill="none" stroke="#000000" d="M 573 635 L 555 653" stroke-miterlimit="10"/></g><g transform="translate(-86,-70) scale(1,1)"><path fill="#C0C0C0" stroke="none" d="M 855 328.5 L 866.5 319 L 877 328.5 L 866.5 337 L 855 328.5" opacity="0.2"/></g><g transform="translate(-86,-70) scale(1,1)"><path fill="#ffffff" stroke="none" d="M 848 321 L 859 312 L 870 321 L 859 330 L 848 321"/></g><g transform="translate(-86,-70) scale(1,1)"><path fill="none" stroke="#000000" d="M 848 321 L 859 312 L 870 321 L 859 330 L 848 321 L 848 321" stroke-miterlimit="10"/></g><g transform="translate(-86,-70) scale(1,1)"><path fill="none" stroke="#000000" d="M 814 321 L 848 321" stroke-miterlimit="10"/></g><g transform="translate(-86,-70) scale(1,1)"><path fill="none" stroke="#000000" d="M 837.8373251423759 325.209517756016 L 848 321 L 837.8373251423758 316.790482243984" stroke-miterlimit="10"/></g><g transform="translate(-86,-70) scale(1,1)"><path fill="none" stroke="#000000" d="M 856 312 L 856 240 L 853 240" stroke-miterlimit="10"/></g><g transform="translate(-86,-70) scale(1,1)"><path fill="none" stroke="#000000" d="M 863.1626748576241 235.790482243984 L 853 240 L 863.1626748576241 244.209517756016" stroke-miterlimit="10"/></g><g transform="translate(-86,-70) scale(1,1)"><g><path fill="none" stroke="none"/><text fill="#000000" stroke="none" font-family="Arial" font-size="13px" font-style="normal" font-weight="normal" text-decoration="none" x="845.858642578125" y="260">NV</text></g></g><g transform="translate(-86,-70) scale(1,1)"><path fill="none" stroke="#000000" d="M 857 330 L 857 512" stroke-miterlimit="10"/></g><g transform="translate(-86,-70) scale(1,1)"><path fill="none" stroke="#000000" d="M 852.790482243984 501.83732514237585 L 857 512 L 861.209517756016 501.83732514237585" stroke-miterlimit="10"/></g></g></svg>